<svg width="60" height="60" viewBox="0 0 60 60" fill="none" xmlns="http://www.w3.org/2000/svg">
<g clip-path="url(#clip0_28024_964)">
<path d="M58.7812 29.9062C57.9375 29.0625 56.9062 28.5938 55.7812 28.6875C54.6562 28.6875 53.5312 29.1562 52.7812 30L51.4688 31.3125C51.0938 30.0938 50.4375 28.5 49.875 27.6562L40.7812 14.4375C41.9062 14.0625 42.75 13.0312 42.75 11.8125C42.75 10.4062 41.7188 9.28125 40.5 9.09375L42.0938 5.25C42.5625 4.125 42.375 2.90625 41.7188 1.96875C40.7812 0.75 39.2812 0 37.6875 0C36 0 34.4062 0.84375 33.6562 2.15625C32.8125 0.84375 31.3125 0 29.625 0C28.0312 0 26.5312 0.75 25.6875 1.96875C25.0312 3 24.8438 4.21875 25.3125 5.25L26.9062 9.09375C25.5938 9.28125 24.6562 10.4062 24.6562 11.8125C24.6562 13.0312 25.5 14.0625 26.625 14.4375L17.5312 27.6562C16.5 29.1562 15.9375 30.75 15.6563 32.4375V32.625V32.8125H14.7188V31.875C14.7188 30.375 13.5 29.1562 12 29.1562H2.71875C1.21875 29.0625 0 30.2813 0 31.7813V57.1875C0 58.7812 1.21875 60 2.71875 60H11.8125C13.3125 60 14.5312 58.7812 14.5312 57.2812V56.4375H37.7812C39.6562 56.4375 41.3438 55.6875 42.5625 54.2812L58.9688 35.625C60.375 33.9375 60.375 31.5 58.7812 29.9062ZM27.1875 3C27.6562 2.34375 28.5938 1.875 29.625 1.875C30.6562 1.875 31.5938 2.34375 32.0625 3.09375L32.8125 4.40625C33.1875 4.96875 34.125 4.96875 34.4062 4.40625L35.25 3.09375C35.7188 2.34375 36.6562 1.875 37.6875 1.875C38.7188 1.875 39.5625 2.34375 40.0312 3C40.2188 3.375 40.5 3.9375 40.2188 4.59375L38.4375 9.09375H28.7812L27 4.59375C26.7188 3.9375 27 3.375 27.1875 3ZM27.2812 10.9688H28.2188H39.0938H40.0312C40.5 10.9688 40.875 11.3438 40.875 11.8125C40.875 12.2812 40.5 12.6562 40.0312 12.6562H39.0938H28.2188H27.2812C26.8125 12.6562 26.4375 12.2812 26.4375 11.8125C26.4375 11.3438 26.8125 10.9688 27.2812 10.9688ZM17.4375 32.625C17.625 31.2188 18.1875 29.9062 18.9375 28.6875L28.6875 14.5312H38.625L48.375 28.6875C49.0312 29.625 49.7812 31.7812 50.0625 32.9062L41.25 42.1875C40.9688 38.9062 38.25 36.2812 34.875 36.2812H34.0312C31.7812 36.2812 29.625 35.7188 27.6562 34.5938C25.4062 33.2812 22.875 32.625 20.3438 32.625H17.4375ZM12.75 57.2812C12.75 57.75 12.375 58.125 11.9062 58.125H2.71875C2.25 58.125 1.875 57.75 1.875 57.2812V31.7813C1.875 31.3125 2.25 30.9375 2.71875 30.9375H11.8125C12.2812 30.9375 12.6562 31.3125 12.6562 31.7813V57.2812H12.75ZM57.5625 34.4062L41.25 52.9688C40.4062 53.9062 39.1875 54.4688 37.875 54.4688H14.625V34.5938H20.3438C22.5938 34.5938 24.75 35.1562 26.7188 36.2812C28.9688 37.5938 31.5 38.25 34.0312 38.25H34.875C37.4062 38.25 39.375 40.3125 39.375 42.75C39.375 43.2188 39 43.5938 38.5312 43.5938H27.5625C27 43.5938 26.625 43.9688 26.625 44.5312C26.625 45.0938 27 45.4688 27.5625 45.4688H40.3125C40.5938 45.4688 40.7812 45.375 40.9688 45.1875L54.0938 31.3125C54.5625 30.8438 55.125 30.5625 55.7812 30.5625C56.4375 30.5625 57 30.75 57.4688 31.2188C58.3125 32.0625 58.3125 33.4688 57.5625 34.4062ZM35.4375 28.5938C35.4375 27.8438 34.875 27.2812 34.125 27.2812H33.1875C31.4063 27.2812 30 25.875 30 24.0938C30 22.5 31.2188 21.1875 32.7188 20.9062V19.9688C32.7188 19.4062 33.0938 19.0312 33.6562 19.0312C34.2188 19.0312 34.5938 19.4062 34.5938 19.9688V20.8125C36.0938 20.8125 37.3125 22.0312 37.3125 23.5312C37.3125 24.0938 36.9375 24.4688 36.375 24.4688C35.8125 24.4688 35.4375 24.0938 35.4375 23.5312C35.4375 23.0625 35.0625 22.6875 34.5938 22.6875H33.1875C32.4375 22.6875 31.875 23.25 31.875 24C31.875 24.75 32.4375 25.3125 33.1875 25.3125H34.125C35.9062 25.3125 37.3125 26.7188 37.3125 28.5C37.3125 30.0938 36.0938 31.4062 34.5938 31.6875V32.625C34.5938 33.1875 34.2188 33.5625 33.6562 33.5625C33.0938 33.5625 32.7188 33.1875 32.7188 32.625V31.875C31.2188 31.875 30 30.6562 30 29.1562C30 28.5938 30.375 28.2188 30.9375 28.2188C31.5 28.2188 31.875 28.5938 31.875 29.1562C31.875 29.625 32.25 30 32.7188 30H34.125C34.7812 30 35.4375 29.3438 35.4375 28.5938Z" fill="#0B4E3D"/>
</g>
<defs>
<clipPath id="clip0_28024_964">
<rect width="60" height="60" fill="white"/>
</clipPath>
</defs>
</svg>
