<svg width="60" height="60" viewBox="0 0 60 60" fill="none" xmlns="http://www.w3.org/2000/svg">
<path d="M53.4311 18.5844C53.3776 18.11 52.9773 17.75 52.4992 17.75C51.3067 17.75 50.2661 18.2075 49.4907 19.0728C47.3157 21.5019 47.7301 26.4481 47.8117 27.2337V28.1441C44.5604 28.2959 43.7729 29.2962 42.4707 31.3494C42.0189 32.0628 41.4592 32.945 40.6098 33.9856L35.6645 37.3719C35.0842 37.8237 30.0001 41.8747 30.0001 44.9966C30.0001 47.7078 30.3845 49.4891 30.6657 50.7903C30.8176 51.4944 30.9376 52.0512 30.9376 52.4966V55.3091C30.9376 56.5494 32.8126 56.5503 32.8126 55.3091V52.4966C32.8126 51.8516 32.6673 51.1766 32.4986 50.3947C32.2351 49.1769 31.8751 47.5072 31.8751 44.9966C31.8751 43.3278 34.9061 40.3419 36.7698 38.885L41.7798 35.4575C41.852 35.4078 41.9167 35.3487 41.9729 35.2812C42.9442 34.1066 43.5601 33.1353 44.0551 32.3544C45.0751 30.7466 45.4492 30.1559 47.6045 30.0256C47.3364 31.2706 46.8273 33.3331 46.0895 35.0769C45.4839 35.6609 43.0623 38.0056 41.5042 39.6669C40.6567 40.5706 42.0207 41.8541 42.872 40.9494C44.5923 39.1137 47.4957 36.3247 47.5248 36.2966C47.6139 36.2113 47.6851 36.1091 47.7348 35.9966C49.0154 33.0697 49.6492 29.3703 49.6754 29.2147C49.6942 29.1012 49.6876 27.3903 49.6886 27.1831C49.6886 25.8209 49.2836 22.1141 50.8904 20.3225C51.1229 20.0628 51.3807 19.8791 51.6779 19.7647L52.4954 27.1278C52.3876 28.1759 51.5636 36.2281 51.5711 37.4244C51.4229 37.9391 49.6951 39.5319 48.4323 40.6953C45.2336 43.6447 41.2511 47.3159 41.2511 50.6206V55.3081C41.2511 56.5484 43.1261 56.5494 43.1261 55.3081V50.6206C43.1261 48.1372 46.9286 44.6328 49.7045 42.0744C52.2264 39.7494 53.4386 38.5831 53.4386 37.4956C53.4386 36.4766 54.1117 29.7331 54.3714 27.2206C54.3882 27.0275 54.4145 27.5066 53.4311 18.5844Z" fill="#0B4E3D"/>
<path d="M6.56909 18.5844C6.62253 18.11 7.02284 17.75 7.50096 17.75C8.69346 17.75 9.73409 18.2075 10.5094 19.0728C12.6844 21.5019 12.27 26.4481 12.1885 27.2337V28.1441C15.4397 28.2959 16.2272 29.2962 17.5294 31.3494C17.9813 32.0628 18.541 32.945 19.3903 33.9856L24.3357 37.3719C24.916 37.8237 30 41.8747 30 44.9966C30 47.7078 29.6157 49.4891 29.3344 50.7903C29.1825 51.4944 29.0625 52.0512 29.0625 52.4966V55.3091C29.0625 56.5494 27.1875 56.5503 27.1875 55.3091V52.4966C27.1875 51.8516 27.3328 51.1766 27.5016 50.3947C27.765 49.1769 28.125 47.5072 28.125 44.9966C28.125 43.3278 25.0941 40.3419 23.2303 38.885L18.2203 35.4575C18.1482 35.4078 18.0835 35.3487 18.0272 35.2812C17.056 34.1066 16.44 33.1353 15.945 32.3544C14.925 30.7466 14.551 30.1559 12.3957 30.0256C12.6638 31.2706 13.1728 33.3331 13.9107 35.0769C14.5163 35.6609 16.9378 38.0056 18.496 39.6669C19.3435 40.5706 17.9794 41.8541 17.1282 40.9494C15.4078 39.1137 12.5044 36.3247 12.4753 36.2966C12.3863 36.2113 12.315 36.1091 12.2653 35.9966C10.9847 33.0697 10.351 29.3703 10.3247 29.2147C10.306 29.1012 10.3125 27.3903 10.3116 27.1831C10.3116 25.8209 10.7166 22.1141 9.10971 20.3225C8.87721 20.0628 8.6194 19.8791 8.32221 19.7647L7.50471 27.1278C7.61253 28.1759 8.43659 36.2281 8.42909 37.4244C8.57721 37.9391 10.305 39.5319 11.5678 40.6953C14.7666 43.6447 18.7491 47.3159 18.7491 50.6206V55.3081C18.7491 56.5484 16.8741 56.5494 16.8741 55.3081V50.6206C16.8741 48.1372 13.0716 44.6328 10.2957 42.0744C7.77565 39.7503 6.56346 38.5841 6.56346 37.4966C6.56346 36.4775 5.89034 29.7341 5.63065 27.2216C5.6119 27.0275 5.58565 27.5066 6.56909 18.5844Z" fill="#0B4E3D"/>
<path d="M14.9991 18.75C14.9991 26.8959 21.6638 33.75 29.9991 33.75C38.326 33.75 44.9991 26.9034 44.9991 18.75C44.9991 10.5938 38.3241 3.75 29.9991 3.75C21.6545 3.75 14.9991 10.6116 14.9991 18.75ZM43.0763 17.8125H38.4104C38.3429 15.7941 38.0626 13.8984 37.6041 12.1875H41.3476C42.3216 13.8647 42.932 15.7734 43.0763 17.8125ZM41.3485 25.3125H37.6051C38.0635 23.6016 38.3438 21.7059 38.4113 19.6875H43.0773C42.932 21.7266 42.3216 23.6353 41.3485 25.3125ZM16.922 19.6875H21.5879C21.6554 21.7059 21.9357 23.6016 22.3941 25.3125H18.6507C17.6757 23.6353 17.0663 21.7266 16.922 19.6875ZM23.461 19.6875H29.0616V25.3125H24.3545C23.8538 23.6259 23.537 21.7144 23.461 19.6875ZM29.0616 27.1875V31.7184C27.4679 31.2384 26.041 29.5725 25.0229 27.1875H29.0616ZM30.9366 31.7184V27.1875H34.9754C33.9573 29.5725 32.5304 31.2384 30.9366 31.7184ZM30.9366 25.3125V19.6875H36.5373C36.4613 21.7144 36.1445 23.6259 35.6438 25.3125H30.9366ZM36.5373 17.8125H30.9366V12.1875H35.6438C36.1445 13.8741 36.4613 15.7856 36.5373 17.8125ZM30.9366 10.3125V5.78156C32.5304 6.26156 33.9573 7.9275 34.9754 10.3125H30.9366ZM29.0616 5.78156V10.3125H25.0229C26.041 7.9275 27.4679 6.26156 29.0616 5.78156ZM29.0616 12.1875V17.8125H23.461C23.537 15.7856 23.8538 13.8741 24.3545 12.1875H29.0616ZM21.587 17.8125H16.922C17.0673 15.7734 17.6766 13.8647 18.6507 12.1875H22.3941C21.9357 13.8984 21.6545 15.7941 21.587 17.8125ZM19.9604 27.1875H22.9829C23.5229 28.6219 24.2063 29.8613 24.9891 30.8766C23.0279 30.0628 21.3076 28.7878 19.9604 27.1875ZM35.0091 30.8766C35.7929 29.8613 36.4754 28.6228 37.0154 27.1875H40.0379C38.6907 28.7878 36.9704 30.0628 35.0091 30.8766ZM40.0379 10.3125H37.0154C36.4754 8.87813 35.792 7.63875 35.0091 6.62344C36.9704 7.43719 38.6907 8.71219 40.0379 10.3125ZM24.9891 6.62344C24.2054 7.63875 23.522 8.87813 22.982 10.3125H19.9595C21.3076 8.71219 23.0279 7.43719 24.9891 6.62344Z" fill="#0B4E3D"/>
</svg>
