<svg width="70" height="70" viewBox="0 0 70 70" fill="none" xmlns="http://www.w3.org/2000/svg">
<g clip-path="url(#clip0_28024_1020)">
<path d="M67.7483 27.5472C67.6103 27.2281 67.337 26.9871 67.0031 26.8901C66.6691 26.7931 66.3093 26.8501 66.0217 27.0456C62.2562 29.8469 57.8836 31.7215 53.2583 32.5172C46.9933 33.5322 41.4167 34.7456 36.5867 39.3189C35.4087 40.4497 34.4025 41.7468 33.6 43.1689C32.5386 41.093 31.1389 39.2083 29.4583 37.5922C25.2233 33.6606 20.3233 32.6106 14.8283 31.7589C10.8096 31.0897 7.00252 29.4917 3.71 27.0922C3.4224 26.8967 3.06257 26.8397 2.72861 26.9368C2.39466 27.0338 2.1214 27.2747 1.98333 27.5939C-3.535 40.4272 2.64833 58.2306 17.2317 62.7689C21.9751 64.1323 26.9953 64.2129 31.78 63.0022C32.3134 62.8706 32.6827 62.3847 32.6667 61.8356C32.6667 54.3922 33.3667 49.7022 34.615 46.4356L34.685 46.2722C35.4354 44.2745 36.6326 42.4748 38.185 41.0106C42.5133 36.8922 47.7283 35.7722 53.6083 34.8156C58.0841 34.0619 62.3431 32.3463 66.0917 29.7872C71.5983 45.3739 62.7083 69.1156 37.3333 67.6689C41.3784 59.6726 47.4029 52.8448 54.8333 47.8356C55.1998 47.6081 55.4109 47.1971 55.3822 46.7668C55.3535 46.3364 55.0898 45.957 54.6964 45.7802C54.303 45.6034 53.8442 45.658 53.5033 45.9222C39.2 55.7222 34.7083 67.7389 34.5217 68.2406C34.3972 68.5794 34.4365 68.9568 34.6283 69.2626C34.82 69.5684 35.1425 69.7683 35.5017 69.8039C40.5253 70.336 45.6048 69.8277 50.4233 68.3106C66.92 63.0606 74.0367 42.4922 67.7483 27.5472ZM30.3333 58.4406C28.5483 55.5356 23.9283 49.4222 14.6767 43.1689C14.1419 42.8081 13.4158 42.9491 13.055 43.4839C12.6942 44.0187 12.8352 44.7448 13.37 45.1056C24.7567 52.8522 28.8633 60.4239 29.2483 61.1472C8.76167 64.5422 -1.505 44.3356 3.61667 29.7639C6.88483 31.937 10.5805 33.385 14.455 34.0106C19.7517 34.8506 24.115 35.7839 27.86 39.2722C29.8025 41.1551 31.3218 43.43 32.3167 45.9456C31.0037 49.9806 30.3344 54.1973 30.3333 58.4406Z" fill="#0B4E3D"/>
<path d="M34.1717 35.8167C34.3907 36.0375 34.6889 36.1618 35 36.1618C35.3111 36.1618 35.6093 36.0375 35.8283 35.8167L51.4383 20.0317C58.6717 12.7283 53.6667 0 43.1667 0C40.0844 0.0205967 37.1406 1.28226 35 3.5C32.835 1.29675 29.8756 0.0557113 26.7866 0.0557113C23.6977 0.0557113 20.7383 1.29675 18.5733 3.5C14.0335 8.09827 14.0335 15.4917 18.5733 20.09L34.1717 35.8167ZM20.23 5.08667C21.9604 3.32738 24.3248 2.33656 26.7925 2.33656C29.2602 2.33656 31.6245 3.32738 33.355 5.08667L34.1717 5.90333C34.3907 6.1242 34.6889 6.24843 35 6.24843C35.3111 6.24843 35.6093 6.1242 35.8283 5.90333L36.6566 5.075C39.3419 2.46126 43.33 1.70692 46.7843 3.15937C50.2386 4.61182 52.4894 7.98941 52.5 11.7367C52.5097 14.2257 51.5322 16.6171 49.7817 18.3867L35 33.3433L20.23 18.3867C16.5885 14.7011 16.5885 8.77225 20.23 5.08667Z" fill="#0B4E3D"/>
<path d="M22.1668 16.4538C22.6046 16.4506 23.0037 16.2026 23.2004 15.8115C23.3971 15.4205 23.3584 14.9522 23.1002 14.5988C21.7065 12.6968 21.8941 10.0655 23.5435 8.38047C23.8373 8.08454 23.951 7.65432 23.8416 7.25187C23.7323 6.84942 23.4165 6.53588 23.0133 6.42937C22.6101 6.32285 22.1807 6.43954 21.8868 6.73547C19.4326 9.24314 19.156 13.1595 21.2335 15.9871C21.4538 16.2809 21.7996 16.4538 22.1668 16.4538Z" fill="#0B4E3D"/>
<path d="M26.8333 6.9985C27.1474 6.9982 27.4605 7.03342 27.7666 7.1035C28.411 7.23881 29.043 6.82616 29.1783 6.18183C29.3136 5.5375 28.901 4.90548 28.2566 4.77017C27.7863 4.69235 27.3099 4.6572 26.8333 4.66517C26.189 4.66517 25.6666 5.1875 25.6666 5.83183C25.6666 6.47616 26.189 6.9985 26.8333 6.9985Z" fill="#0B4E3D"/>
</g>
<defs>
<clipPath id="clip0_28024_1020">
<rect width="70" height="70" fill="white"/>
</clipPath>
</defs>
</svg>
