<svg width="70" height="70" viewBox="0 0 70 70" fill="none" xmlns="http://www.w3.org/2000/svg">
<g clip-path="url(#clip0_28024_1000)">
<path d="M69.3993 48.0434L63.9774 42.6214V24.0234L67.5172 22.7473C68.3297 22.4542 68.8716 21.6836 68.8723 20.8196C68.873 19.9559 68.3322 19.1842 67.5199 18.8901L35.1343 7.16158C34.6833 6.99822 34.1889 6.99822 33.7379 7.16158L1.35244 18.8901C0.543281 19.1832 0.00329357 19.9501 1.26296e-05 20.8107C-0.00299489 21.6713 0.531388 22.4421 1.33822 22.7411L13.2903 27.1686V40.6828C13.2903 41.1022 13.4188 41.5116 13.6587 41.8556C13.7906 42.0448 15.0402 43.7513 18.2397 45.3617C22.2817 47.3964 27.5831 48.4281 33.9965 48.4281C40.4053 48.4281 45.7335 47.3986 49.8332 45.3678C53.0642 43.7674 54.3554 42.0787 54.4921 41.8915C54.748 41.5406 54.886 41.1175 54.886 40.683V27.3009L59.8764 25.5017V42.6214L54.4544 48.0434C54.0698 48.428 53.8537 48.9495 53.8537 49.4933C53.8537 50.0371 54.0697 50.5588 54.4544 50.9432L59.8764 56.3651V60.9143C59.8764 62.0467 60.7945 62.9648 61.927 62.9648C63.0595 62.9648 63.9776 62.0467 63.9776 60.9143V56.3651L69.3995 50.9432C70.2003 50.1427 70.2003 48.8441 69.3993 48.0434ZM34.4362 11.2705L60.7877 20.8138L34.0062 30.4692L8.01247 20.8399L34.4362 11.2705ZM50.7847 39.8656C43.7745 46.1734 22.9436 45.4501 17.3914 39.8861V28.6879L33.2842 34.5753C33.5364 34.6152 33.7745 34.8327 34.6919 34.5816L50.7848 28.7798L50.7847 39.8656ZM61.9269 52.616L58.8041 49.4933L61.9269 46.3706L65.0495 49.4933L61.9269 52.616Z" fill="#0B4E3D"/>
</g>
<defs>
<clipPath id="clip0_28024_1000">
<rect width="70" height="70" fill="white"/>
</clipPath>
</defs>
</svg>
