<svg width="70" height="70" viewBox="0 0 70 70" fill="none" xmlns="http://www.w3.org/2000/svg">
<path d="M41.5625 14.2188H38.2812V10.9375C38.2812 10.6474 38.166 10.3692 37.9609 10.1641C37.7558 9.95898 37.4776 9.84375 37.1875 9.84375H32.8125C32.5224 9.84375 32.2442 9.95898 32.0391 10.1641C31.834 10.3692 31.7188 10.6474 31.7188 10.9375V14.2188H28.4375C28.1474 14.2188 27.8692 14.334 27.6641 14.5391C27.459 14.7442 27.3438 15.0224 27.3438 15.3125V19.6875C27.3438 19.9776 27.459 20.2558 27.6641 20.4609C27.8692 20.666 28.1474 20.7812 28.4375 20.7812H31.7188V24.0625C31.7188 24.3526 31.834 24.6308 32.0391 24.8359C32.2442 25.041 32.5224 25.1562 32.8125 25.1562H37.1875C37.4776 25.1562 37.7558 25.041 37.9609 24.8359C38.166 24.6308 38.2812 24.3526 38.2812 24.0625V20.7812H41.5625C41.8526 20.7812 42.1308 20.666 42.3359 20.4609C42.541 20.2558 42.6562 19.9776 42.6562 19.6875V15.3125C42.6562 15.0224 42.541 14.7442 42.3359 14.5391C42.1308 14.334 41.8526 14.2188 41.5625 14.2188ZM40.4688 18.5938H37.1875C36.8974 18.5938 36.6192 18.709 36.4141 18.9141C36.209 19.1192 36.0938 19.3974 36.0938 19.6875V22.9688H33.9062V19.6875C33.9062 19.3974 33.791 19.1192 33.5859 18.9141C33.3808 18.709 33.1026 18.5938 32.8125 18.5938H29.5312V16.4062H32.8125C33.1026 16.4062 33.3808 16.291 33.5859 16.0859C33.791 15.8808 33.9062 15.6026 33.9062 15.3125V12.0312H36.0938V15.3125C36.0938 15.6026 36.209 15.8808 36.4141 16.0859C36.6192 16.291 36.8974 16.4062 37.1875 16.4062H40.4688V18.5938Z" fill="#0B4E3D"/>
<path d="M65.3297 20.0832C65.3518 19.8908 65.3628 19.6973 65.3625 19.5036C65.3572 18.501 65.0094 17.5303 64.3768 16.7525C63.7442 15.9747 62.8648 15.4365 61.8844 15.227C60.7753 15.0159 59.6275 15.2339 58.6732 15.837C57.7188 16.4401 57.0292 17.3832 56.7438 18.4754L51.9312 32.3223C51.8599 32.3506 51.7905 32.3835 51.7234 32.4207L42.0547 38.0864C40.5752 38.9554 39.348 40.1955 38.4944 41.684C37.6408 43.1725 37.1903 44.858 37.1875 46.5739V56.877C36.8974 56.877 36.6192 56.9922 36.4141 57.1973C36.209 57.4025 36.0938 57.6807 36.0938 57.9707V66.7207C36.0938 67.0108 36.209 67.289 36.4141 67.4941C36.6192 67.6993 36.8974 67.8145 37.1875 67.8145H52.5C52.7901 67.8145 53.0683 67.6993 53.2734 67.4941C53.4785 67.289 53.5938 67.0108 53.5938 66.7207V57.9707C53.5938 57.6807 53.4785 57.4025 53.2734 57.1973C53.0683 56.9922 52.7901 56.877 52.5 56.877V54.4707C52.502 54.0088 52.6004 53.5523 52.7887 53.1305C52.977 52.7086 53.2512 52.3307 53.5938 52.0207L60.9875 45.4473C61.7963 44.7397 62.3752 43.8065 62.65 42.7676L67.3969 25.0161C67.4982 24.6454 67.5497 24.2628 67.55 23.8786C67.5457 23.1067 67.3382 22.3496 66.9485 21.6833C66.5587 21.0171 66.0004 20.4652 65.3297 20.0832ZM58.8328 19.1207C58.9671 18.5551 59.3096 18.0609 59.792 17.7365C60.2745 17.4122 60.8615 17.2816 61.4359 17.3707C61.9262 17.4734 62.3663 17.7412 62.6829 18.1294C62.9994 18.5176 63.1731 19.0027 63.175 19.5036V19.5254C62.198 19.5436 61.2537 19.8803 60.4857 20.4845C59.7177 21.0886 59.168 21.9271 58.9203 22.8723L55.8688 32.2895C55.4067 32.0703 54.9114 31.9299 54.4031 31.8739L58.8328 19.1207ZM51.4062 65.627H38.2812V59.0645H51.4062V65.627ZM65.2859 24.4473L60.5281 42.2098C60.3635 42.827 60.0212 43.3823 59.5437 43.8067L52.1391 50.3801C51.5661 50.8968 51.1076 51.5277 50.793 52.2322C50.4784 52.9367 50.3148 53.6992 50.3125 54.4707V56.877H39.375V46.5739C39.3804 45.2394 39.732 43.9292 40.3953 42.7713C41.0586 41.6133 42.011 40.6473 43.1594 39.9676L52.8172 34.3129C53.0662 34.1678 53.3414 34.0734 53.6271 34.035C53.9127 33.9966 54.2031 34.0151 54.4816 34.0893C54.7601 34.1634 55.0211 34.2919 55.2498 34.4673C55.4785 34.6428 55.6702 34.8616 55.8141 35.1114C56.0982 35.6167 56.1765 36.2122 56.0328 36.7739C55.9568 37.0512 55.8269 37.3109 55.6505 37.5379C55.4741 37.765 55.2546 37.9551 55.0047 38.0973L48.7375 41.7176C48.4994 41.869 48.329 42.1064 48.2619 42.3804C48.1948 42.6544 48.2362 42.9438 48.3773 43.188C48.5185 43.4322 48.7486 43.6125 49.0195 43.6911C49.2905 43.7697 49.5813 43.7406 49.8313 43.6098L56.0984 39.9895C56.5994 39.7053 57.0384 39.3237 57.3897 38.8673C57.7409 38.4108 57.9973 37.8887 58.1437 37.3317C58.4415 36.2126 58.2842 35.0211 57.7062 34.0176L57.6406 33.9192L61.0203 23.4957C61.1546 22.9301 61.4971 22.4359 61.9795 22.1115C62.462 21.7872 63.049 21.6566 63.6234 21.7457C64.1137 21.8484 64.5538 22.1162 64.8704 22.5044C65.1869 22.8926 65.3606 23.3777 65.3625 23.8786C65.3662 24.0709 65.3404 24.2627 65.2859 24.4473Z" fill="#0B4E3D"/>
<path d="M32.8127 56.8732V46.5701C32.8099 44.8542 32.3594 43.1688 31.5058 41.6802C30.6522 40.1917 29.425 38.9517 27.9455 38.0826L18.2768 32.406C18.2111 32.3732 18.1346 32.3514 18.0689 32.3185L13.2893 18.5482C13.0115 17.44 12.3218 16.4793 11.3607 15.8616C10.3996 15.2439 9.23929 15.0156 8.11582 15.2232C7.13537 15.4327 6.25596 15.971 5.62337 16.7488C4.99078 17.5266 4.643 18.4972 4.6377 19.4998C4.63741 19.6935 4.64837 19.887 4.67051 20.0795C3.99978 20.4615 3.44146 21.0133 3.0517 21.6796C2.66195 22.3458 2.45449 23.1029 2.4502 23.8748C2.45232 24.2583 2.50005 24.6401 2.59238 25.0123L7.35019 42.7529C7.62208 43.7962 8.20131 44.7336 9.0127 45.4435L16.3955 52.017C16.7415 52.3248 17.0187 52.7021 17.209 53.1242C17.3994 53.5464 17.4986 54.0039 17.5002 54.467V56.8732C17.2101 56.8732 16.9319 56.9885 16.7268 57.1936C16.5217 57.3987 16.4064 57.6769 16.4064 57.967V66.717C16.4064 67.0071 16.5217 67.2853 16.7268 67.4904C16.9319 67.6955 17.2101 67.8107 17.5002 67.8107H32.8127C33.1028 67.8107 33.381 67.6955 33.5861 67.4904C33.7912 67.2853 33.9064 67.0071 33.9064 66.717V57.967C33.9064 57.6769 33.7912 57.3987 33.5861 57.1936C33.381 56.9885 33.1028 56.8732 32.8127 56.8732ZM6.82519 19.4998C6.82654 19.0004 6.9987 18.5166 7.31307 18.1286C7.62744 17.7406 8.06509 17.4718 8.55332 17.367C9.14357 17.2813 9.74439 17.4219 10.2353 17.7607C10.7262 18.0995 11.0709 18.6113 11.2002 19.1935L15.5971 31.8701C15.0888 31.9261 14.5934 32.0666 14.1314 32.2857L11.1018 22.9232C10.8552 21.9686 10.3045 21.1203 9.53286 20.5066C8.76126 19.8929 7.81078 19.5471 6.82519 19.5217V19.4998ZM17.8502 50.3764L10.4564 43.8029C9.97635 43.3763 9.63374 42.8167 9.47207 42.1951L4.70332 24.4435C4.65805 24.2574 4.636 24.0664 4.6377 23.8748C4.63904 23.3754 4.8112 22.8916 5.12557 22.5036C5.43994 22.1156 5.87759 21.8468 6.36582 21.742C6.95192 21.654 7.54959 21.7912 8.03862 22.1261C8.52765 22.4609 8.87177 22.9684 9.00176 23.5467L12.3596 33.9154L12.2939 34.0139C11.716 35.0174 11.5587 36.2088 11.8564 37.3279C12.0029 37.8849 12.2593 38.4071 12.6105 38.8635C12.9618 39.3199 13.4008 39.7015 13.9018 39.9857L20.1689 43.606C20.4189 43.7368 20.7097 43.7659 20.9807 43.6873C21.2516 43.6087 21.4817 43.4285 21.6229 43.1842C21.764 42.94 21.8054 42.6507 21.7383 42.3767C21.6712 42.1027 21.5008 41.8652 21.2627 41.7139L14.9955 38.0935C14.7456 37.9514 14.5261 37.7613 14.3497 37.5342C14.1733 37.3071 14.0434 37.0474 13.9674 36.7701C13.8237 36.2084 13.902 35.613 14.1861 35.1076C14.329 34.8584 14.5196 34.6398 14.747 34.4642C14.9744 34.2887 15.2342 34.1596 15.5115 34.0845C15.7887 34.0093 16.0781 33.9895 16.363 34.0262C16.648 34.0629 16.9229 34.1553 17.1721 34.2982L26.8408 39.9639C27.9892 40.6436 28.9416 41.6096 29.6049 42.7675C30.2682 43.9254 30.6198 45.2357 30.6252 46.5701V56.8732H19.6877V54.467C19.6858 53.6943 19.5212 52.9308 19.2046 52.226C18.8881 51.5211 18.4265 50.8909 17.8502 50.3764ZM31.7189 65.6232H18.5939V59.0607H31.7189V65.6232Z" fill="#0B4E3D"/>
<path d="M50.4735 5.61461C49.4581 4.59746 48.2521 3.79053 46.9245 3.24C45.597 2.68947 44.1738 2.40615 42.7366 2.40625C41.2994 2.40635 39.8763 2.68987 38.5488 3.24059C37.2213 3.79131 36.0154 4.59841 35.0002 5.6157C33.9851 4.59838 32.7793 3.79128 31.4518 3.24059C30.1243 2.6899 28.7013 2.40644 27.2641 2.40644C25.827 2.40644 24.4039 2.6899 23.0764 3.24059C21.749 3.79128 20.5432 4.59838 19.528 5.6157C17.4809 7.66723 16.3312 10.4471 16.3312 13.3452C16.3312 16.2434 17.4809 19.0232 19.528 21.0748L34.228 35.7748C34.4331 35.9798 34.7113 36.095 35.0013 36.095C35.2913 36.095 35.5695 35.9798 35.7746 35.7748L50.4746 21.0748C52.5216 19.0229 53.6712 16.2428 53.6709 13.3445C53.6707 10.4461 52.5208 7.66617 50.4735 5.61461ZM35.0002 33.4549L21.0735 19.5282C19.8508 18.3039 19.0186 16.7445 18.682 15.0473C18.3454 13.35 18.5196 11.5911 19.1826 9.99284C19.8455 8.39458 20.9674 7.02875 22.4065 6.068C23.8455 5.10726 25.5371 4.59474 27.2674 4.59523C28.4168 4.59129 29.5555 4.81624 30.617 5.25697C31.6786 5.6977 32.6418 6.34539 33.4504 7.16226L34.2269 7.93883C34.432 8.14387 34.7102 8.25906 35.0002 8.25906C35.2902 8.25906 35.5684 8.14387 35.7735 7.93883L36.5522 7.16008C37.3642 6.3466 38.3287 5.70124 39.3904 5.26091C40.4521 4.82058 41.5902 4.59393 42.7396 4.59393C43.889 4.59393 45.0271 4.82058 46.0888 5.26091C47.1505 5.70124 48.1149 6.3466 48.9269 7.16008C50.5653 8.80068 51.4855 11.0245 51.4855 13.343C51.4855 15.6616 50.5653 17.8854 48.9269 19.526L35.0002 33.4549Z" fill="#0B4E3D"/>
</svg>
