<svg width="24" height="24" viewBox="0 0 24 24" fill="none" xmlns="http://www.w3.org/2000/svg">
<g clip-path="url(#clip0_28028_769)">
<path d="M7.875 16.5C7.875 16.5995 7.91451 16.6948 7.98483 16.7652C8.05516 16.8355 8.15054 16.875 8.25 16.875H15.75C15.8495 16.875 15.9448 16.8355 16.0152 16.7652C16.0855 16.6948 16.125 16.5995 16.125 16.5C16.125 16.4005 16.0855 16.3052 16.0152 16.2348C15.9448 16.1645 15.8495 16.125 15.75 16.125H8.25C8.15054 16.125 8.05516 16.1645 7.98483 16.2348C7.91451 16.3052 7.875 16.4005 7.875 16.5Z" fill="#FFC107"/>
<path d="M10.426 10.0541C10.1912 10.2894 10.0593 10.6082 10.0593 10.9406C10.0593 11.273 10.1912 11.5918 10.426 11.8271C10.5885 11.9909 10.7967 12.1018 11.0233 12.1455C11.2498 12.1891 11.4843 12.1634 11.696 12.0717L12.4665 11.7414C12.5406 11.7093 12.6227 11.7003 12.7021 11.7156C12.7814 11.7309 12.8543 11.7697 12.9112 11.827C12.958 11.8738 12.9951 11.9293 13.0204 11.9905C13.0458 12.0516 13.0588 12.1171 13.0588 12.1833C13.0588 12.2494 13.0458 12.3149 13.0204 12.3761C12.9951 12.4372 12.958 12.4927 12.9112 12.5395C12.8644 12.5863 12.8089 12.6234 12.7478 12.6487C12.6867 12.674 12.6211 12.6871 12.555 12.6871C12.4888 12.6871 12.4233 12.674 12.3622 12.6487C12.301 12.6234 12.2455 12.5863 12.1987 12.5395C12.1281 12.4707 12.0332 12.4324 11.9346 12.433C11.8359 12.4337 11.7415 12.4731 11.6718 12.5429C11.602 12.6126 11.5626 12.707 11.5619 12.8056C11.5613 12.9043 11.5996 12.9992 11.6684 13.0698C11.7848 13.1862 11.923 13.2785 12.0751 13.3415C12.2272 13.4045 12.3902 13.437 12.5549 13.437C12.7195 13.437 12.8825 13.4045 13.0346 13.3415C13.1867 13.2785 13.3249 13.1862 13.4413 13.0698C13.5577 12.9534 13.65 12.8152 13.713 12.6631C13.776 12.511 13.8085 12.348 13.8085 12.1834C13.8085 12.0188 13.776 11.8557 13.713 11.7036C13.65 11.5516 13.5577 11.4134 13.4413 11.297C13.2787 11.1332 13.0706 11.0223 12.844 10.9787C12.6174 10.9351 12.383 10.9607 12.1712 11.0523L11.4007 11.3826C11.3266 11.4148 11.2445 11.4239 11.1652 11.4086C11.0858 11.3933 11.013 11.3544 10.9562 11.297C10.9091 11.2502 10.8717 11.1947 10.8462 11.1335C10.8206 11.0723 10.8074 11.0067 10.8072 10.9404C10.8071 10.8741 10.8201 10.8084 10.8454 10.7471C10.8707 10.6858 10.9078 10.6301 10.9547 10.5832C11.0016 10.5363 11.0573 10.4992 11.1186 10.4738C11.1798 10.4485 11.2455 10.4355 11.3118 10.4356C11.3781 10.4358 11.4438 10.449 11.505 10.4745C11.5662 10.5 11.6217 10.5374 11.6684 10.5845C11.7032 10.6195 11.7446 10.6474 11.7901 10.6664C11.8357 10.6855 11.8846 10.6953 11.9339 10.6954C11.9833 10.6955 12.0322 10.6859 12.0779 10.667C12.1235 10.6482 12.165 10.6205 12.1999 10.5856C12.2348 10.5507 12.2625 10.5092 12.2814 10.4635C12.3002 10.4179 12.3099 10.369 12.3097 10.3196C12.3096 10.2702 12.2998 10.2213 12.2807 10.1758C12.2617 10.1302 12.2338 10.0889 12.1987 10.0541C11.9635 9.81934 11.6447 9.6875 11.3124 9.6875C10.98 9.6875 10.6612 9.81934 10.426 10.0541Z" fill="#FFC107"/>
<path d="M17.955 8.65411L19.9746 7.50001H22.5C22.5995 7.50001 22.6948 7.4605 22.7652 7.39018C22.8355 7.31985 22.875 7.22447 22.875 7.12501V1.87501C22.875 1.77555 22.8355 1.68017 22.7652 1.60984C22.6948 1.53952 22.5995 1.50001 22.5 1.50001H19.9746L17.955 0.34591C17.5582 0.119435 17.1092 0.000221757 16.6523 9.79648e-06H11.7426C11.3977 -0.000935381 11.0562 0.0665225 10.7376 0.198479C10.419 0.330435 10.1298 0.524269 9.88661 0.76876L7.17041 3.48488C6.90118 3.75412 6.74994 4.11927 6.74994 4.50002C6.74994 4.88077 6.9012 5.24593 7.17043 5.51515C7.43966 5.78438 7.80482 5.93563 8.18557 5.93563C8.56632 5.93562 8.93147 5.78437 9.2007 5.51513L9.73522 4.98061C9.78913 5.07521 9.85488 5.16254 9.9309 5.24048C10.1772 5.48624 10.5109 5.62426 10.8589 5.62426C11.2068 5.62426 11.5405 5.48624 11.7868 5.24048L11.7974 5.22995C11.8006 5.23317 11.8027 5.23745 11.8059 5.24048C12.0522 5.48624 12.3859 5.62426 12.7339 5.62426C13.0818 5.62426 13.4155 5.48624 13.6618 5.24048L15.0927 3.80986L15.4127 4.20998C15.4706 4.28196 15.4998 4.37279 15.4947 4.465C15.4896 4.55721 15.4506 4.64429 15.3852 4.70949L13.7197 6.37501H11.4375C11.0895 6.37543 10.7559 6.51384 10.5099 6.75989C10.2638 7.00594 10.1254 7.33954 10.125 7.68751C10.1265 7.90094 10.1807 8.11069 10.2828 8.29812C9.9379 8.47299 9.62255 8.70087 9.34826 8.97346C8.76573 9.55798 8.39211 10.3182 8.28522 11.1365C8.17833 11.9548 8.34413 12.7855 8.75696 13.5H4.5C4.43389 13.5 4.36896 13.5175 4.31178 13.5507C4.25461 13.5839 4.20722 13.6316 4.17442 13.689L1.17442 18.939C1.16966 18.9473 1.1676 18.9569 1.16351 18.9656C1.15875 18.9756 1.15489 18.9856 1.15099 18.9961C1.13477 19.0372 1.12597 19.0808 1.125 19.125V23.625C1.125 23.7245 1.16451 23.8198 1.23483 23.8902C1.30516 23.9605 1.40054 24 1.5 24H22.5C22.5995 24 22.6948 23.9605 22.7652 23.8902C22.8355 23.8198 22.875 23.7245 22.875 23.625V19.125C22.874 19.0809 22.8652 19.0373 22.849 18.9962C22.8453 18.9856 22.8413 18.9756 22.8365 18.9655C22.8323 18.9568 22.8303 18.9473 22.8256 18.939L19.8256 13.689C19.7928 13.6316 19.7454 13.5839 19.6882 13.5507C19.631 13.5175 19.5661 13.5 19.5 13.5H15.243C15.6525 12.7908 15.8187 11.9671 15.7163 11.1546C15.6139 10.3421 15.2484 9.5854 14.6757 9.00001H16.6523C17.1092 8.9998 17.5582 8.88058 17.955 8.65411ZM10.4612 4.7102C10.3793 4.62827 10.3256 4.52241 10.3079 4.40795L11.7158 3.00001H12.9668L11.2568 4.71001C11.1513 4.81545 11.0082 4.87469 10.859 4.87472C10.7099 4.87476 10.5668 4.81558 10.4612 4.7102ZM13.1316 4.7102C13.0261 4.81555 12.883 4.87472 12.7339 4.87472C12.5848 4.87472 12.4417 4.81555 12.3362 4.7102C12.333 4.70697 12.3319 4.70183 12.3287 4.69853L14.0273 3.00001H14.445L14.6215 3.22066L13.1316 4.7102ZM11.4375 7.12501H13.875C13.9242 7.12501 13.973 7.11531 14.0185 7.09646C14.064 7.07761 14.1053 7.04997 14.1401 7.01514L15.9155 5.23992C16.1116 5.0443 16.2285 4.78318 16.2438 4.50666C16.2592 4.23013 16.1719 3.95768 15.9987 3.74157L14.9179 2.39082C14.8828 2.34691 14.8382 2.31146 14.7875 2.28709C14.7368 2.26271 14.6813 2.25004 14.625 2.25001H11.5605C11.5113 2.25001 11.4625 2.25971 11.417 2.27856C11.3715 2.29741 11.3302 2.32505 11.2954 2.35988L8.67041 4.98488C8.54182 5.11348 8.3674 5.18572 8.18554 5.18571C8.00368 5.18571 7.82927 5.11346 7.70068 4.98487C7.57209 4.85627 7.49985 4.68186 7.49985 4.5C7.49986 4.31814 7.5721 4.14373 7.7007 4.01513L10.4169 1.29916C10.7692 0.94873 11.2456 0.751406 11.7426 0.75001H16.6523C16.9787 0.750245 17.2994 0.835369 17.5829 0.997022L19.689 2.20077C19.7456 2.23308 19.8098 2.25005 19.875 2.25001H22.125V6.75001H19.875C19.8097 6.75003 19.7456 6.76707 19.689 6.79943L17.5829 8.00319C17.2994 8.16477 16.9787 8.24983 16.6523 8.25001H11.4375C11.2883 8.25001 11.1452 8.19075 11.0398 8.08526C10.9343 7.97977 10.875 7.83669 10.875 7.68751C10.875 7.53833 10.9343 7.39525 11.0398 7.28976C11.1452 7.18427 11.2883 7.12501 11.4375 7.12501ZM1.875 23.25V19.5H22.125V23.25H1.875ZM19.2825 14.25L21.8538 18.75H2.1462L4.7175 14.25H9.32426C9.3327 14.2586 9.33971 14.268 9.34826 14.2766C9.69649 14.6248 10.1099 14.9011 10.5649 15.0895C11.0199 15.278 11.5075 15.375 12 15.375C12.4925 15.375 12.9801 15.278 13.4351 15.0895C13.8901 14.9011 14.3035 14.6248 14.6517 14.2766C14.6603 14.268 14.6673 14.2586 14.6757 14.25H19.2825ZM14.1215 9.50375C14.541 9.9233 14.8267 10.4578 14.9425 11.0398C15.0582 11.6217 14.9988 12.2249 14.7717 12.773C14.5447 13.3212 14.1602 13.7897 13.6669 14.1194C13.1736 14.449 12.5936 14.625 12.0002 14.625C11.4069 14.6251 10.8269 14.4491 10.3335 14.1195C9.84018 13.7899 9.45564 13.3214 9.22854 12.7733C9.00144 12.2251 8.94199 11.622 9.05769 11.04C9.17339 10.4581 9.45905 9.92353 9.87855 9.50393C10.1587 9.22576 10.4916 9.00645 10.8578 8.85894C11.0374 8.9504 11.2359 8.99871 11.4375 9.00001H13.441C13.6905 9.13488 13.9196 9.30448 14.1215 9.50375Z" fill="#FFC107"/>
</g>
<defs>
<clipPath id="clip0_28028_769">
<rect width="24" height="24" fill="white"/>
</clipPath>
</defs>
</svg>
