<svg width="40" height="40" viewBox="0 0 40 40" fill="none" xmlns="http://www.w3.org/2000/svg">
<path d="M3.90625 22.4297C3.47504 22.4297 3.125 22.7797 3.125 23.2109C3.125 23.6422 3.47504 23.9922 3.90625 23.9922C4.33747 23.9922 4.6875 23.6422 4.6875 23.2109C4.6875 22.7797 4.33747 22.4297 3.90625 22.4297Z" fill="#FFC107"/>
<path d="M35.9077 25.1387L28.5425 27.6708C28.5752 27.4895 28.5935 27.3046 28.5935 27.1169C28.5935 25.3939 27.1918 23.9919 25.4685 23.9919H20.4093C20.275 23.9919 20.1426 23.9574 20.0257 23.8915L15.8982 21.57C15.0821 21.1101 14.1547 20.8669 13.2163 20.8669H7.67793C7.35567 19.9578 6.48713 19.3047 5.46876 19.3047H0.781251C0.349732 19.3047 0 19.6544 0 20.0859V34.1482C0 34.5797 0.349732 34.9294 0.781251 34.9294H5.46876C6.46394 34.9294 7.31721 34.3041 7.65596 33.4258C8.54036 33.5357 9.56362 33.7972 10.2066 34.1829L14.2923 36.6344C15.8402 37.5634 17.6123 38.0544 19.4178 38.0544C20.8484 38.0544 22.2345 37.7541 23.5379 37.1621L38.1196 30.7415C39.7346 30.0863 40.532 28.1487 39.6088 26.4409C38.9298 25.1842 37.3396 24.6251 35.9077 25.1387ZM6.25001 32.5893C6.24818 33.0184 5.89814 33.3669 5.46876 33.3669H1.5625V20.8672H5.46876C5.89936 20.8672 6.25001 21.2175 6.25001 21.6484V32.5893ZM37.526 29.2965C37.5178 29.2995 37.5095 29.3032 37.5013 29.3065C37.5013 29.3065 22.898 35.7366 22.8952 35.7378C21.7951 36.2383 20.625 36.4919 19.4178 36.4919C17.8955 36.4919 16.4014 36.0781 15.0965 35.2947L11.0105 32.8432C10.1358 32.3186 8.88338 31.9988 7.81251 31.8706V22.4297H13.2163C13.8864 22.4297 14.5487 22.603 15.1319 22.9317L19.2594 25.2532C19.6091 25.4503 20.0071 25.5547 20.4093 25.5547H25.4685C26.33 25.5547 27.031 26.2554 27.031 27.1172C27.031 27.9757 26.3297 28.6797 25.4685 28.6797H17.5266C17.0951 28.6797 16.7453 29.0294 16.7453 29.461C16.7453 29.8922 17.0951 30.2419 17.5266 30.2419H25.4685C25.9809 30.2419 26.4853 30.1146 26.933 29.876C26.933 29.876 36.4286 26.6118 36.4323 26.6106C37.1323 26.3579 37.924 26.6094 38.2343 27.1837C38.6997 28.0446 38.3149 28.9806 37.526 29.2965Z" fill="#FFC107"/>
<path d="M22.7537 20.9027C22.9008 21.03 23.083 21.0935 23.2655 21.0935C23.448 21.0935 23.6305 21.03 23.7773 20.9027C30.1515 15.3784 34.0944 12.5827 34.0944 8.23823C34.0944 4.80134 31.6612 1.95312 28.2429 1.95312C25.998 1.95312 24.279 3.24707 23.1718 5.18891C22.0671 3.25135 20.3498 1.95312 18.1016 1.95312C15.4847 1.95312 13.2969 3.64899 12.5279 6.2732C12.4064 6.68733 12.6438 7.12129 13.058 7.24275C13.4721 7.36421 13.906 7.12678 14.0272 6.71266C14.5964 4.77051 16.1955 3.51563 18.1016 3.51563C20.3303 3.51563 21.8937 5.4947 22.4189 7.33735C22.5126 7.67579 22.8209 7.91017 23.1718 7.91017C23.5231 7.91017 23.831 7.67579 23.9247 7.33735C23.9354 7.2992 25.0206 3.51563 28.2429 3.51563C30.688 3.51563 32.5319 5.54566 32.5319 8.23823C32.5319 11.7136 29.1347 14.2191 23.2649 19.2801C19.6885 16.2088 16.8476 14.047 15.233 11.9321C14.9711 11.5891 14.481 11.5231 14.138 11.785C13.795 12.0468 13.7293 12.5369 13.9909 12.8803C15.811 15.264 18.8835 17.5479 22.7537 20.9027Z" fill="#FFC107"/>
<path d="M13.2031 8.83594C12.7719 8.83594 12.4219 9.18597 12.4219 9.61719C12.4219 10.0484 12.7719 10.3984 13.2031 10.3984C13.6343 10.3984 13.9844 10.0484 13.9844 9.61719C13.9844 9.18597 13.6343 8.83594 13.2031 8.83594Z" fill="#FFC107"/>
</svg>
