<svg width="40" height="40" viewBox="0 0 40 40" fill="none" xmlns="http://www.w3.org/2000/svg">
<g clip-path="url(#clip0_28028_239)">
<path d="M39.1875 19.9375C38.625 19.375 37.9375 19.0625 37.1875 19.125C36.4375 19.125 35.6875 19.4375 35.1875 20L34.3125 20.875C34.0625 20.0625 33.625 19 33.25 18.4375L27.1875 9.625C27.9375 9.375 28.5 8.6875 28.5 7.875C28.5 6.9375 27.8125 6.1875 27 6.0625L28.0625 3.5C28.375 2.75 28.25 1.9375 27.8125 1.3125C27.1875 0.5 26.1875 0 25.125 0C24 0 22.9375 0.5625 22.4375 1.4375C21.875 0.5625 20.875 0 19.75 0C18.6875 0 17.6875 0.5 17.125 1.3125C16.6875 2 16.5625 2.8125 16.875 3.5L17.9375 6.0625C17.0625 6.1875 16.4375 6.9375 16.4375 7.875C16.4375 8.6875 17 9.375 17.75 9.625L11.6875 18.4375C11 19.4375 10.625 20.5 10.4375 21.625V21.75V21.875H9.8125V21.25C9.8125 20.25 9 19.4375 8 19.4375H1.8125C0.8125 19.375 0 20.1875 0 21.1875V38.125C0 39.1875 0.8125 40 1.8125 40H7.875C8.875 40 9.6875 39.1875 9.6875 38.1875V37.625H25.1875C26.4375 37.625 27.5625 37.125 28.375 36.1875L39.3125 23.75C40.25 22.625 40.25 21 39.1875 19.9375ZM18.125 2C18.4375 1.5625 19.0625 1.25 19.75 1.25C20.4375 1.25 21.0625 1.5625 21.375 2.0625L21.875 2.9375C22.125 3.3125 22.75 3.3125 22.9375 2.9375L23.5 2.0625C23.8125 1.5625 24.4375 1.25 25.125 1.25C25.8125 1.25 26.375 1.5625 26.6875 2C26.8125 2.25 27 2.625 26.8125 3.0625L25.625 6.0625H19.1875L18 3.0625C17.8125 2.625 18 2.25 18.125 2ZM18.1875 7.3125H18.8125H26.0625H26.6875C27 7.3125 27.25 7.5625 27.25 7.875C27.25 8.1875 27 8.4375 26.6875 8.4375H26.0625H18.8125H18.1875C17.875 8.4375 17.625 8.1875 17.625 7.875C17.625 7.5625 17.875 7.3125 18.1875 7.3125ZM11.625 21.75C11.75 20.8125 12.125 19.9375 12.625 19.125L19.125 9.6875H25.75L32.25 19.125C32.6875 19.75 33.1875 21.1875 33.375 21.9375L27.5 28.125C27.3125 25.9375 25.5 24.1875 23.25 24.1875H22.6875C21.1875 24.1875 19.75 23.8125 18.4375 23.0625C16.9375 22.1875 15.25 21.75 13.5625 21.75H11.625ZM8.5 38.1875C8.5 38.5 8.25 38.75 7.9375 38.75H1.8125C1.5 38.75 1.25 38.5 1.25 38.1875V21.1875C1.25 20.875 1.5 20.625 1.8125 20.625H7.875C8.1875 20.625 8.4375 20.875 8.4375 21.1875V38.1875H8.5ZM38.375 22.9375L27.5 35.3125C26.9375 35.9375 26.125 36.3125 25.25 36.3125H9.75V23.0625H13.5625C15.0625 23.0625 16.5 23.4375 17.8125 24.1875C19.3125 25.0625 21 25.5 22.6875 25.5H23.25C24.9375 25.5 26.25 26.875 26.25 28.5C26.25 28.8125 26 29.0625 25.6875 29.0625H18.375C18 29.0625 17.75 29.3125 17.75 29.6875C17.75 30.0625 18 30.3125 18.375 30.3125H26.875C27.0625 30.3125 27.1875 30.25 27.3125 30.125L36.0625 20.875C36.375 20.5625 36.75 20.375 37.1875 20.375C37.625 20.375 38 20.5 38.3125 20.8125C38.875 21.375 38.875 22.3125 38.375 22.9375ZM23.625 19.0625C23.625 18.5625 23.25 18.1875 22.75 18.1875H22.125C20.9375 18.1875 20 17.25 20 16.0625C20 15 20.8125 14.125 21.8125 13.9375V13.3125C21.8125 12.9375 22.0625 12.6875 22.4375 12.6875C22.8125 12.6875 23.0625 12.9375 23.0625 13.3125V13.875C24.0625 13.875 24.875 14.6875 24.875 15.6875C24.875 16.0625 24.625 16.3125 24.25 16.3125C23.875 16.3125 23.625 16.0625 23.625 15.6875C23.625 15.375 23.375 15.125 23.0625 15.125H22.125C21.625 15.125 21.25 15.5 21.25 16C21.25 16.5 21.625 16.875 22.125 16.875H22.75C23.9375 16.875 24.875 17.8125 24.875 19C24.875 20.0625 24.0625 20.9375 23.0625 21.125V21.75C23.0625 22.125 22.8125 22.375 22.4375 22.375C22.0625 22.375 21.8125 22.125 21.8125 21.75V21.25C20.8125 21.25 20 20.4375 20 19.4375C20 19.0625 20.25 18.8125 20.625 18.8125C21 18.8125 21.25 19.0625 21.25 19.4375C21.25 19.75 21.5 20 21.8125 20H22.75C23.1875 20 23.625 19.5625 23.625 19.0625Z" fill="#FFC107"/>
</g>
<defs>
<clipPath id="clip0_28028_239">
<rect width="40" height="40" fill="white"/>
</clipPath>
</defs>
</svg>
