<svg width="40" height="40" viewBox="0 0 40 40" fill="none" xmlns="http://www.w3.org/2000/svg">
<g clip-path="url(#clip0_28028_253)">
<path d="M13.125 27.5C13.125 27.6658 13.1908 27.8247 13.3081 27.9419C13.4253 28.0592 13.5842 28.125 13.75 28.125H26.25C26.4158 28.125 26.5747 28.0592 26.6919 27.9419C26.8092 27.8247 26.875 27.6658 26.875 27.5C26.875 27.3342 26.8092 27.1753 26.6919 27.0581C26.5747 26.9408 26.4158 26.875 26.25 26.875H13.75C13.5842 26.875 13.4253 26.9408 13.3081 27.0581C13.1908 27.1753 13.125 27.3342 13.125 27.5Z" fill="#FFC107"/>
<path d="M17.3767 16.7516C16.9854 17.1438 16.7656 17.6751 16.7656 18.2291C16.7656 18.7831 16.9854 19.3145 17.3767 19.7067C17.6476 19.9796 17.9945 20.1645 18.3722 20.2373C18.7498 20.31 19.1406 20.2672 19.4935 20.1144L20.7776 19.5639C20.9012 19.5103 21.038 19.4953 21.1702 19.5208C21.3024 19.5462 21.4239 19.6109 21.5188 19.7065C21.5968 19.7845 21.6586 19.877 21.7008 19.9789C21.743 20.0808 21.7647 20.19 21.7647 20.3002C21.7647 20.4105 21.743 20.5197 21.7008 20.6216C21.6586 20.7234 21.5968 20.816 21.5188 20.894C21.4408 20.972 21.3483 21.0338 21.2464 21.076C21.1445 21.1182 21.0353 21.1399 20.925 21.1399C20.8148 21.1399 20.7056 21.1182 20.6037 21.076C20.5018 21.0338 20.4093 20.972 20.3313 20.894C20.2136 20.7792 20.0554 20.7155 19.891 20.7165C19.7266 20.7175 19.5693 20.7833 19.453 20.8995C19.3368 21.0158 19.271 21.1731 19.27 21.3375C19.269 21.5019 19.3327 21.6601 19.4475 21.7778C19.6415 21.9718 19.8718 22.1257 20.1253 22.2307C20.3788 22.3357 20.6505 22.3897 20.9249 22.3897C21.1992 22.3897 21.4709 22.3357 21.7244 22.2307C21.9779 22.1257 22.2082 21.9718 22.4022 21.7778C22.5962 21.5838 22.7501 21.3535 22.8551 21.1C22.9601 20.8465 23.0142 20.5748 23.0142 20.3004C23.0142 20.026 22.9601 19.7544 22.8551 19.5009C22.7501 19.2474 22.5962 19.0171 22.4022 18.823C22.1313 18.5502 21.7843 18.3654 21.4067 18.2926C21.0292 18.2199 20.6384 18.2627 20.2855 18.4154L19.0013 18.9659C18.8778 19.0195 18.7409 19.0346 18.6087 19.0091C18.4765 18.9836 18.3551 18.9188 18.2604 18.823C18.1819 18.7452 18.1196 18.6526 18.077 18.5507C18.0344 18.4487 18.0124 18.3393 18.0122 18.2288C18.0119 18.1183 18.0335 18.0088 18.0757 17.9066C18.1179 17.8045 18.1798 17.7117 18.258 17.6335C18.3361 17.5554 18.4289 17.4934 18.531 17.4512C18.6332 17.409 18.7426 17.3873 18.8531 17.3875C18.9637 17.3877 19.073 17.4097 19.175 17.4523C19.277 17.4948 19.3696 17.5571 19.4475 17.6355C19.5054 17.694 19.5743 17.7404 19.6503 17.7722C19.7262 17.8039 19.8077 17.8203 19.89 17.8205C19.9723 17.8207 20.0538 17.8046 20.1299 17.7732C20.206 17.7418 20.2751 17.6956 20.3333 17.6374C20.3915 17.5792 20.4376 17.5101 20.469 17.434C20.5004 17.3579 20.5165 17.2764 20.5163 17.1941C20.5161 17.1118 20.4997 17.0303 20.4679 16.9544C20.4362 16.8785 20.3897 16.8095 20.3313 16.7516C19.9392 16.3604 19.4079 16.1406 18.854 16.1406C18.3001 16.1406 17.7688 16.3604 17.3767 16.7516Z" fill="#FFC107"/>
<path d="M29.925 14.4235L33.291 12.5H37.5C37.6658 12.5 37.8247 12.4342 37.9419 12.317C38.0592 12.1997 38.125 12.0408 38.125 11.875V3.12502C38.125 2.95926 38.0592 2.80029 37.9419 2.68307C37.8247 2.56586 37.6658 2.50002 37.5 2.50002H33.291L29.925 0.576516C29.2636 0.199058 28.5154 0.000369594 27.7539 1.63275e-05H19.5709C18.9962 -0.00155897 18.4269 0.110871 17.896 0.330798C17.365 0.550725 16.883 0.873781 16.4777 1.28127L11.9507 5.80814C11.502 6.25686 11.2499 6.86546 11.2499 7.50004C11.2499 8.13462 11.502 8.74321 11.9507 9.19192C12.3994 9.64064 13.008 9.89272 13.6426 9.89271C14.2772 9.8927 14.8858 9.64061 15.3345 9.19189L16.2254 8.30102C16.3152 8.45868 16.4248 8.60423 16.5515 8.73414C16.962 9.14374 17.5182 9.37377 18.0981 9.37377C18.678 9.37377 19.2342 9.14374 19.6448 8.73414L19.6624 8.71658C19.6677 8.72195 19.6712 8.72908 19.6765 8.73414C20.087 9.14374 20.6432 9.37377 21.2231 9.37377C21.803 9.37377 22.3592 9.14374 22.7697 8.73414L25.1544 6.34977L25.6879 7.01664C25.7843 7.1366 25.833 7.28799 25.8245 7.44167C25.8161 7.59536 25.7511 7.74049 25.6421 7.84914L22.8662 10.625H19.0625C18.4826 10.6257 17.9266 10.8564 17.5165 11.2665C17.1064 11.6766 16.8757 12.2326 16.875 12.8125C16.8775 13.1682 16.9678 13.5178 17.138 13.8302C16.5632 14.1217 16.0376 14.5015 15.5804 14.9558C14.6096 15.93 13.9868 17.197 13.8087 18.5608C13.6305 19.9246 13.9069 21.3091 14.5949 22.5H7.5C7.38982 22.5 7.2816 22.5292 7.18631 22.5845C7.09101 22.6398 7.01204 22.7193 6.95737 22.815L1.95737 31.565C1.94944 31.5789 1.946 31.5948 1.93919 31.6093C1.93125 31.6261 1.92481 31.6426 1.91831 31.6602C1.89128 31.7287 1.87662 31.8014 1.875 31.875V39.375C1.875 39.5408 1.94085 39.6997 2.05806 39.817C2.17527 39.9342 2.33424 40 2.5 40H37.5C37.6658 40 37.8247 39.9342 37.9419 39.817C38.0592 39.6997 38.125 39.5408 38.125 39.375V31.875C38.1234 31.8015 38.1087 31.7288 38.0817 31.6604C38.0754 31.6427 38.0688 31.6261 38.0608 31.6091C38.0539 31.5947 38.0506 31.5789 38.0426 31.565L33.0426 22.815C32.988 22.7193 32.909 22.6398 32.8137 22.5845C32.7184 22.5292 32.6102 22.5 32.5 22.5H25.4051C26.0875 21.318 26.3646 19.9452 26.1938 18.591C26.0231 17.2368 25.4141 15.9757 24.4596 15H27.7539C28.5154 14.9997 29.2636 14.801 29.925 14.4235ZM17.4353 7.85033C17.2988 7.71379 17.2094 7.53736 17.1798 7.34658L19.5264 5.00002H21.6113L18.7613 7.85002C18.5854 8.02574 18.347 8.12448 18.0984 8.12454C17.8498 8.1246 17.6113 8.02597 17.4353 7.85033ZM21.886 7.85033C21.7101 8.02592 21.4717 8.12454 21.2232 8.12454C20.9746 8.12454 20.7362 8.02592 20.5603 7.85033C20.5549 7.84495 20.5532 7.83639 20.5478 7.83089L23.3789 5.00002H24.075L24.3692 5.36777L21.886 7.85033ZM19.0625 11.875H23.125C23.2071 11.875 23.2883 11.8589 23.3642 11.8274C23.44 11.796 23.5089 11.75 23.5669 11.6919L26.5259 8.7332C26.8526 8.40717 27.0475 7.97197 27.0731 7.5111C27.0986 7.05022 26.9531 6.59613 26.6644 6.23595L24.8633 3.9847C24.8046 3.91152 24.7303 3.85243 24.6458 3.81181C24.5613 3.77119 24.4688 3.75007 24.375 3.75002H19.2676C19.1855 3.75001 19.1042 3.76618 19.0284 3.7976C18.9526 3.82902 18.8837 3.87508 18.8257 3.93314L14.4507 8.30814C14.2364 8.52246 13.9457 8.64286 13.6426 8.64286C13.3395 8.64285 13.0488 8.52244 12.8345 8.30811C12.6201 8.09378 12.4997 7.80309 12.4998 7.49999C12.4998 7.19689 12.6202 6.90621 12.8345 6.69189L17.3614 2.16527C17.9487 1.58122 18.7427 1.25234 19.5709 1.25002H27.7539C28.2978 1.25041 28.8323 1.39228 29.3048 1.6617L32.8149 3.66795C32.9094 3.72179 33.0163 3.75008 33.125 3.75002H36.875V11.25H33.125C33.0162 11.2501 32.9094 11.2784 32.8149 11.3324L29.3048 13.3386C28.8323 13.608 28.2978 13.7497 27.7539 13.75H19.0625C18.8139 13.75 18.5754 13.6512 18.3996 13.4754C18.2238 13.2996 18.125 13.0612 18.125 12.8125C18.125 12.5639 18.2238 12.3254 18.3996 12.1496C18.5754 11.9738 18.8139 11.875 19.0625 11.875ZM3.125 38.75V32.5H36.875V38.75H3.125ZM32.1375 23.75L36.4231 31.25H3.577L7.8625 23.75H15.5404C15.5545 23.7643 15.5662 23.78 15.5804 23.7943C16.1608 24.3747 16.8498 24.8351 17.6081 25.1492C18.3664 25.4633 19.1792 25.625 20 25.625C20.8208 25.625 21.6336 25.4633 22.3919 25.1492C23.1502 24.8351 23.8392 24.3747 24.4196 23.7943C24.4338 23.78 24.4455 23.7643 24.4596 23.75H32.1375ZM23.5357 15.8396C24.235 16.5388 24.7112 17.4297 24.9041 18.3996C25.097 19.3695 24.998 20.3748 24.6196 21.2884C24.2412 22.202 23.6003 22.9829 22.7781 23.5323C21.9559 24.0817 20.9893 24.375 20.0004 24.3751C19.0115 24.3751 18.0448 24.0819 17.2226 23.5326C16.4003 22.9832 15.7594 22.2024 15.3809 21.2888C15.0024 20.3752 14.9033 19.3699 15.0961 18.4C15.289 17.4301 15.7651 16.5392 16.4643 15.8399C16.9311 15.3763 17.4861 15.0108 18.0964 14.7649C18.3957 14.9173 18.7266 14.9978 19.0625 15H22.4018C22.8176 15.2248 23.1994 15.5075 23.5357 15.8396Z" fill="#FFC107"/>
</g>
<defs>
<clipPath id="clip0_28028_253">
<rect width="40" height="40" fill="white"/>
</clipPath>
</defs>
</svg>
