<svg width="40" height="40" viewBox="0 0 40 40" fill="none" xmlns="http://www.w3.org/2000/svg">
<path d="M35.6206 12.3922C35.585 12.0759 35.3181 11.8359 34.9994 11.8359C34.2044 11.8359 33.5106 12.1409 32.9937 12.7178C31.5437 14.3372 31.82 17.6347 31.8744 18.1584V18.7653C29.7069 18.8666 29.1819 19.5334 28.3137 20.9022C28.0125 21.3778 27.6394 21.9659 27.0731 22.6597L23.7762 24.9172C23.3894 25.2184 20 27.9191 20 30.0003C20 31.8078 20.2562 32.9953 20.4437 33.8628C20.545 34.3322 20.625 34.7034 20.625 35.0003V36.8753C20.625 37.7022 21.875 37.7028 21.875 36.8753V35.0003C21.875 34.5703 21.7781 34.1203 21.6656 33.5991C21.49 32.7872 21.25 31.6741 21.25 30.0003C21.25 28.8878 23.2706 26.8972 24.5131 25.9259L27.8531 23.6409C27.9012 23.6078 27.9444 23.5684 27.9819 23.5234C28.6294 22.7403 29.04 22.0928 29.37 21.5722C30.05 20.5003 30.2994 20.1066 31.7362 20.0197C31.5575 20.8497 31.2181 22.2247 30.7262 23.3872C30.3225 23.7766 28.7081 25.3397 27.6694 26.4472C27.1044 27.0497 28.0137 27.9053 28.5812 27.3022C29.7281 26.0784 31.6637 24.2191 31.6831 24.2003C31.7425 24.1434 31.79 24.0753 31.8231 24.0003C32.6769 22.0491 33.0994 19.5828 33.1169 19.4791C33.1294 19.4034 33.125 18.2628 33.1256 18.1247C33.1256 17.2166 32.8556 14.7453 33.9269 13.5509C34.0819 13.3778 34.2537 13.2553 34.4519 13.1791L34.9969 18.0878C34.925 18.7866 34.3756 24.1547 34.3806 24.9522C34.2819 25.2953 33.13 26.3572 32.2881 27.1328C30.1556 29.0991 27.5006 31.5466 27.5006 33.7497V36.8747C27.5006 37.7016 28.7506 37.7022 28.7506 36.8747V33.7497C28.7506 32.0941 31.2856 29.7578 33.1362 28.0522C34.8175 26.5022 35.6256 25.7247 35.6256 24.9997C35.6256 24.3203 36.0744 19.8247 36.2475 18.1497C36.2587 18.0209 36.2762 18.3403 35.6206 12.3922Z" fill="#122F2A"/>
<path d="M4.37931 12.3922C4.41494 12.0759 4.68181 11.8359 5.00056 11.8359C5.79556 11.8359 6.48931 12.1409 7.00619 12.7178C8.45619 14.3372 8.17994 17.6347 8.12556 18.1584V18.7653C10.2931 18.8666 10.8181 19.5334 11.6862 20.9022C11.9874 21.3778 12.3606 21.9659 12.9268 22.6597L16.2237 24.9172C16.6106 25.2184 19.9999 27.9191 19.9999 30.0003C19.9999 31.8078 19.7437 32.9953 19.5562 33.8628C19.4549 34.3322 19.3749 34.7034 19.3749 35.0003V36.8753C19.3749 37.7022 18.1249 37.7028 18.1249 36.8753V35.0003C18.1249 34.5703 18.2218 34.1203 18.3343 33.5991C18.5099 32.7872 18.7499 31.6741 18.7499 30.0003C18.7499 28.8878 16.7293 26.8972 15.4868 25.9259L12.1468 23.6409C12.0987 23.6078 12.0556 23.5684 12.0181 23.5234C11.3706 22.7403 10.9599 22.0928 10.6299 21.5722C9.94994 20.5003 9.70056 20.1066 8.26369 20.0197C8.44244 20.8497 8.78181 22.2247 9.27369 23.3872C9.67744 23.7766 11.2918 25.3397 12.3306 26.4472C12.8956 27.0497 11.9862 27.9053 11.4187 27.3022C10.2718 26.0784 8.33619 24.2191 8.31681 24.2003C8.25744 24.1434 8.20994 24.0753 8.17681 24.0003C7.32306 22.0491 6.90056 19.5828 6.88306 19.4791C6.87056 19.4034 6.87494 18.2628 6.87431 18.1247C6.87431 17.2166 7.14431 14.7453 6.07306 13.5509C5.91806 13.3778 5.74619 13.2553 5.54806 13.1791L5.00306 18.0878C5.07494 18.7866 5.62431 24.1547 5.61931 24.9522C5.71806 25.2953 6.86994 26.3572 7.71181 27.1328C9.84431 29.0991 12.4993 31.5466 12.4993 33.7497V36.8747C12.4993 37.7016 11.2493 37.7022 11.2493 36.8747V33.7497C11.2493 32.0941 8.71431 29.7578 6.86369 28.0522C5.18369 26.5028 4.37556 25.7253 4.37556 25.0003C4.37556 24.3209 3.92681 19.8253 3.75369 18.1503C3.74119 18.0209 3.72369 18.3403 4.37931 12.3922Z" fill="#122F2A"/>
<path d="M9.99902 12.5C9.99902 17.9306 14.4421 22.5 19.999 22.5C25.5503 22.5 29.999 17.9356 29.999 12.5C29.999 7.0625 25.549 2.5 19.999 2.5C14.4359 2.5 9.99902 7.07438 9.99902 12.5ZM28.7171 11.875H25.6065C25.5615 10.5294 25.3746 9.26562 25.069 8.125H27.5646C28.214 9.24312 28.6209 10.5156 28.7171 11.875ZM27.5653 16.875H25.0696C25.3753 15.7344 25.5621 14.4706 25.6071 13.125H28.7178C28.6209 14.4844 28.214 15.7569 27.5653 16.875ZM11.2809 13.125H14.3915C14.4365 14.4706 14.6234 15.7344 14.929 16.875H12.4334C11.7834 15.7569 11.3771 14.4844 11.2809 13.125ZM15.6403 13.125H19.374V16.875H16.2359C15.9021 15.7506 15.6909 14.4762 15.6403 13.125ZM19.374 18.125V21.1456C18.3115 20.8256 17.3603 19.715 16.6815 18.125H19.374ZM20.624 21.1456V18.125H23.3165C22.6378 19.715 21.6865 20.8256 20.624 21.1456ZM20.624 16.875V13.125H24.3578C24.3071 14.4762 24.0959 15.7506 23.7621 16.875H20.624ZM24.3578 11.875H20.624V8.125H23.7621C24.0959 9.24937 24.3071 10.5238 24.3578 11.875ZM20.624 6.875V3.85437C21.6865 4.17437 22.6378 5.285 23.3165 6.875H20.624ZM19.374 3.85437V6.875H16.6815C17.3603 5.285 18.3115 4.17437 19.374 3.85437ZM19.374 8.125V11.875H15.6403C15.6909 10.5238 15.9021 9.24937 16.2359 8.125H19.374ZM14.3909 11.875H11.2809C11.3778 10.5156 11.784 9.24312 12.4334 8.125H14.929C14.6234 9.26562 14.4359 10.5294 14.3909 11.875ZM13.3065 18.125H15.3215C15.6815 19.0812 16.1371 19.9075 16.659 20.5844C15.3515 20.0419 14.2046 19.1919 13.3065 18.125ZM23.339 20.5844C23.8615 19.9075 24.3165 19.0819 24.6765 18.125H26.6915C25.7934 19.1919 24.6465 20.0419 23.339 20.5844ZM26.6915 6.875H24.6765C24.3165 5.91875 23.8609 5.0925 23.339 4.41563C24.6465 4.95813 25.7934 5.80813 26.6915 6.875ZM16.659 4.41563C16.1365 5.0925 15.6809 5.91875 15.3209 6.875H13.3059C14.2046 5.80813 15.3515 4.95813 16.659 4.41563Z" fill="#122F2A"/>
</svg>
