<svg width="40" height="40" viewBox="0 0 40 40" fill="none" xmlns="http://www.w3.org/2000/svg">
<path d="M34.6563 29.0321C34.4784 28.7301 34.1943 28.5155 33.8562 28.4281L32.4038 28.0523C32.0657 27.9648 31.7132 28.0145 31.4111 28.1923C31.1091 28.3702 30.8946 28.6544 30.8071 28.9924L30.6948 29.4267L27.0386 28.4423C25.9932 28.1607 24.7736 27.971 23.6529 28.698C23.3889 28.8691 23.084 29.0817 22.7611 29.3068C21.8423 29.9472 20.6989 30.7441 19.4855 31.3158C19.46 31.3277 19.4354 31.3415 19.4118 31.3568C18.5131 31.9396 18.2133 33.0964 18.7293 33.9901C18.744 34.0156 18.7592 34.0406 18.7746 34.0652C18.6951 34.0516 18.6153 34.0338 18.5347 34.0119L13.3382 32.5981C10.2032 31.7456 9.49168 33.3209 9.34816 33.824C9.05035 34.8684 9.66363 36.0836 10.635 36.3736L20.1384 39.2108C20.5025 39.3195 20.8685 39.3734 21.2314 39.3734C21.8888 39.3734 22.5362 39.1963 23.1434 38.8455L28.4112 35.8042L29.0036 35.9629L28.855 36.5373C28.6741 37.2366 29.0958 37.9528 29.7951 38.134L31.2475 38.5098C31.3565 38.538 31.467 38.552 31.5768 38.552C31.8075 38.552 32.0355 38.4902 32.2402 38.3698C32.5421 38.192 32.7566 37.9078 32.8442 37.5697L34.7964 30.0247C34.8839 29.6867 34.8341 29.3341 34.6563 29.0321ZM28.4845 34.53C28.3243 34.487 28.1538 34.5095 28.0103 34.5925L22.5182 37.7633C21.8718 38.1366 21.1913 38.2209 20.4957 38.0131L10.9924 35.1759C10.6986 35.0882 10.4314 34.5831 10.5501 34.167C10.7186 33.5763 11.661 33.4373 13.01 33.8044L18.2065 35.2181C19.0532 35.4481 19.8763 35.3761 20.7245 34.997C20.7245 34.997 21.2776 34.7476 21.2809 34.7459C21.9475 34.4128 22.5491 34.0522 23.1861 33.6705C23.4742 33.4977 23.7722 33.3191 24.0765 33.1434C24.3755 32.9709 24.478 32.5886 24.3054 32.2897C24.1329 31.9907 23.7506 31.8882 23.4517 32.0608C23.1384 32.2416 22.8359 32.4229 22.5434 32.5983C21.936 32.9623 21.3614 33.3061 20.7473 33.6146C20.1022 33.8664 19.8839 33.4901 19.8117 33.3652C19.6309 33.052 19.7389 32.6541 20.0618 32.4259C21.3533 31.8116 22.529 30.9921 23.4757 30.3323C23.8034 30.1038 24.0864 29.9066 24.3331 29.7466C24.9043 29.3761 25.5941 29.3479 26.7135 29.6492L30.3815 30.6369L29.3164 34.7529L28.4845 34.53ZM33.5861 29.7116L31.6339 37.2566C31.6259 37.2871 31.5911 37.3079 31.5605 37.2998L30.1082 36.924C30.0776 36.916 30.057 36.881 30.0649 36.8506L32.0172 29.3055C32.0212 29.2903 32.0306 29.2781 32.0453 29.2695C32.0554 29.2636 32.0657 29.2605 32.0762 29.2605C32.081 29.2605 32.0857 29.2612 32.0906 29.2624L33.5431 29.6383C33.5583 29.6423 33.5705 29.6516 33.5791 29.6663C33.5878 29.681 33.5901 29.6962 33.5861 29.7116ZM33.0428 30.312C33.0728 30.5677 32.8897 30.7992 32.634 30.8292C32.3783 30.8592 32.1468 30.6762 32.1168 30.4205C32.0868 30.1648 32.2698 29.9332 32.5255 29.9032C32.7813 29.8733 33.0129 30.0563 33.0428 30.312ZM14.3671 31.9497C14.4211 31.9505 14.4744 31.951 14.5282 31.951C17.8485 31.9508 20.8665 30.3251 22.4339 27.6802C23.8613 25.2714 23.8316 22.4002 22.3522 19.8027C21.8962 19.002 21.3226 18.155 20.6085 17.2277C20.9328 16.8948 21.1331 16.4407 21.1331 15.9404C21.1331 15.5366 21.0028 15.1627 20.782 14.8584C21.2121 14.489 21.4849 13.9414 21.4849 13.3312C21.4849 12.9849 21.3932 12.6494 21.2286 12.3547C21.8154 11.9676 22.2049 11.3023 22.2049 10.5551C22.2049 9.75695 21.7561 9.03523 21.0796 8.66375C21.2767 8.34133 21.3904 7.96258 21.3904 7.55781C21.3904 6.38516 20.4364 5.43109 19.2637 5.43109H18.7621L18.8903 5.30297C19.2637 4.92953 19.4693 4.43148 19.4693 3.9007C19.4693 3.36992 19.2636 2.87195 18.8903 2.49852C18.236 1.8443 17.1954 1.73242 16.4157 2.23266C16.3896 2.24945 16.3768 2.25055 16.3486 2.23883C16.3197 2.22688 16.3115 2.21711 16.3048 2.18641C16.1073 1.28172 15.2924 0.625 14.367 0.625C13.4418 0.625234 12.627 1.28195 12.4296 2.18641C12.4229 2.21703 12.4147 2.2268 12.3861 2.23867C12.3572 2.25047 12.3446 2.24937 12.3182 2.2325C11.5388 1.73234 10.4982 1.84437 9.84395 2.49859C9.39387 2.94875 9.20629 3.56313 9.28035 4.15063C9.20309 4.26047 9.1291 4.37477 9.05973 4.49383L8.17199 6.01781C8.05551 6.21781 7.87152 6.32351 7.63996 6.32351H5.78613C5.44098 6.32351 5.16113 6.60336 5.16113 6.94851V16.5454C5.16113 16.8905 5.44098 17.1704 5.78613 17.1704H7.64004C7.75309 17.1704 7.85566 17.1958 7.94457 17.2457C7.98387 17.2678 8.02316 17.2891 8.06246 17.3098C7.37762 18.2049 6.82449 19.0257 6.38191 19.8028C4.90254 22.4002 4.87285 25.2715 6.30027 27.6802C7.8677 30.3252 10.8854 31.9511 14.206 31.9511C14.2596 31.951 14.3134 31.9505 14.3671 31.9497ZM10.7279 3.3825C10.9698 3.14062 11.3546 3.09953 11.6432 3.28453C12.013 3.52195 12.458 3.56172 12.8645 3.39352C13.2704 3.22531 13.557 2.8825 13.6508 2.45313C13.7239 2.11828 14.0252 1.87516 14.3671 1.87508C14.7091 1.87508 15.0104 2.1182 15.0836 2.45297C15.1771 2.88234 15.4637 3.22516 15.87 3.39367C16.2763 3.56172 16.7213 3.52211 17.091 3.28461C17.3796 3.09961 17.7645 3.14062 18.0064 3.38258C18.1437 3.51992 18.2194 3.70398 18.2194 3.90086C18.2194 4.09781 18.1437 4.28188 18.0064 4.41922L16.9943 5.43125H11.74L10.7279 4.41922C10.6422 4.33352 10.5828 4.23148 10.5485 4.1232C10.5468 4.11742 10.5447 4.1118 10.5429 4.10609C10.4708 3.8575 10.5324 3.57805 10.7279 3.3825ZM9.25223 6.64695L9.9648 5.42367L10.6327 6.09148C10.6511 6.42008 10.9227 6.68109 11.2559 6.68109H19.2638C19.7472 6.68109 20.1405 7.07437 20.1405 7.55781C20.1405 8.04125 19.7472 8.43445 19.2638 8.43445H17.4803C17.1351 8.43445 16.8553 8.7143 16.8553 9.05945C16.8553 9.40461 17.1351 9.68445 17.4803 9.68445H20.2961C20.6812 9.79406 20.955 10.1514 20.955 10.5552C20.955 11.0436 20.5583 11.4486 20.0704 11.4591H17.1886C16.8435 11.4591 16.5636 11.7389 16.5636 12.0841C16.5636 12.4292 16.8435 12.7091 17.1886 12.7091H19.91C20.1102 12.8517 20.235 13.0842 20.235 13.3313C20.235 13.752 19.8928 14.0944 19.4721 14.0944L16.3565 14.0952C16.0114 14.0952 15.7315 14.375 15.7315 14.7202C15.7315 15.0653 16.0114 15.3452 16.3565 15.3452H19.3021C19.6239 15.3533 19.8832 15.6169 19.8832 15.9405C19.8832 16.2691 19.6158 16.5366 19.2871 16.5366L10.0105 16.5366C9.47371 16.5366 9.02551 16.4193 8.55707 16.1559C8.46434 16.1038 8.36644 16.0609 8.26527 16.0257V7.46742C8.67457 7.32359 9.02387 7.03891 9.25223 6.64695ZM6.41113 7.57359H7.01504V15.9204H6.41113V7.57359ZM7.37574 27.0429C6.16605 25.0016 6.19895 22.65 7.46816 20.4213C7.93684 19.5986 8.54355 18.7162 9.31629 17.7331C9.53996 17.7689 9.77027 17.7866 10.0104 17.7866H14.1645C13.9065 17.8636 13.7183 18.1024 13.7183 18.3854V18.7872C13.7093 18.7891 13.7004 18.7912 13.6914 18.7931C12.4888 19.0659 11.7171 19.9969 11.7713 21.1097C11.8103 21.9141 12.2717 22.941 14.2482 23.2656C15.6107 23.4893 15.8385 23.9545 15.8846 24.3348C15.9121 24.5614 15.8632 24.7385 15.7304 24.892C15.4865 25.1739 14.9709 25.3646 14.4168 25.3778C14.3959 25.3784 14.3748 25.3784 14.3537 25.3784C14.35 25.3784 14.3461 25.3781 14.3425 25.3784C13.7207 25.372 12.9644 25.1012 12.7759 24.3448C12.6924 24.01 12.3532 23.8066 12.0182 23.8896C11.6833 23.9731 11.4795 24.3123 11.563 24.6473C11.8129 25.6495 12.6413 26.3659 13.7182 26.5695V26.9611C13.7182 27.3062 13.9981 27.5861 14.3432 27.5861C14.6884 27.5861 14.9682 27.3062 14.9682 26.9611V26.5795C15.6737 26.4649 16.2902 26.1555 16.6757 25.7098C17.04 25.2886 17.1954 24.761 17.1254 24.1842C16.9846 23.0245 16.0848 22.3005 14.4507 22.0322C13.0563 21.8032 13.0297 21.2555 13.0197 21.0491C12.9907 20.4498 13.4904 20.1205 13.9679 20.0123C14.0825 19.9862 14.2018 19.9711 14.3225 19.968C14.3406 19.9684 14.3593 19.9684 14.3775 19.9674C14.9288 19.97 15.4973 20.2269 15.7618 20.857C15.8954 21.1753 16.2622 21.3249 16.58 21.1912C16.8983 21.0577 17.048 20.6913 16.9143 20.373C16.5212 19.4366 15.7608 18.9442 14.9683 18.7819V18.3855C14.9683 18.1026 14.7801 17.8637 14.5221 17.7868H19.2871C19.3434 17.7868 19.3989 17.7838 19.4539 17.7789C20.2099 18.7441 20.8048 19.6116 21.2662 20.4216C22.5354 22.6503 22.5683 25.002 21.3586 27.0432C20.0159 29.309 17.409 30.7014 14.5286 30.7013C14.4785 30.7013 14.4281 30.7009 14.3778 30.7C14.3707 30.6998 14.3637 30.6998 14.3567 30.7C11.4179 30.7506 8.74176 29.3481 7.37574 27.0429Z" fill="#122F2A"/>
</svg>
