<svg width="40" height="40" viewBox="0 0 40 40" fill="none" xmlns="http://www.w3.org/2000/svg">
<g clip-path="url(#clip0_28028_331)">
<path d="M20.8492 16.3467H19.1513C18.8387 16.3467 18.5022 16.1677 18.5022 15.7745C18.5022 15.4509 18.2399 15.1885 17.9163 15.1885C17.5926 15.1885 17.3303 15.4509 17.3303 15.7745C17.3303 16.7525 18.1302 17.5186 19.1513 17.5186H19.4143V18.0647C19.4143 18.3883 19.6766 18.6506 20.0002 18.6506C20.3239 18.6506 20.5862 18.3883 20.5862 18.0647V17.5186H20.8492C21.8533 17.5186 22.6702 16.7017 22.6702 15.6977V15.3376C22.6702 14.3335 21.8533 13.5167 20.8492 13.5167H19.1513C18.7934 13.5167 18.5022 13.2255 18.5022 12.8677V12.5076C18.5022 12.1497 18.7934 11.8586 19.1513 11.8586H20.8492C21.2071 11.8586 21.4983 12.1498 21.4983 12.5076C21.4983 12.8312 21.7606 13.0935 22.0842 13.0935C22.4079 13.0935 22.6702 12.8312 22.6702 12.5076C22.6702 11.5035 21.8533 10.6867 20.8492 10.6867H20.5862V10.1406C20.5862 9.81703 20.3239 9.55469 20.0002 9.55469C19.6766 9.55469 19.4143 9.81703 19.4143 10.1406V10.6867H19.1513C18.1472 10.6867 17.3303 11.5036 17.3303 12.5076V12.8677C17.3303 13.8718 18.1472 14.6886 19.1513 14.6886H20.8492C21.2071 14.6886 21.4983 14.9798 21.4983 15.3376V15.6977C21.4983 16.0555 21.2071 16.3467 20.8492 16.3467Z" fill="#122F2A"/>
<path d="M29.5231 11.907C30.6058 11.907 31.6441 11.5479 32.4877 10.9094C32.4992 11.7 33.145 12.3398 33.9383 12.3398H38.5266C39.3271 12.3398 39.9783 11.6887 39.9783 10.8882V1.45172C39.9784 0.651172 39.3272 0 38.5267 0H33.9383C33.2346 0 32.6468 0.503281 32.5148 1.16875H26.1859C24.481 1.16875 22.846 1.84594 21.6406 3.05148L17.8629 6.82914C16.9888 7.08508 16.1652 7.49977 15.4221 8.06359C15.1643 8.25914 15.1139 8.62672 15.3095 8.88453C15.5052 9.14227 15.8726 9.19297 16.1305 8.99711C17.2515 8.14656 18.5895 7.69703 20 7.69703C21.3971 7.69703 22.7449 8.15109 23.8516 8.98445C23.0289 10.2322 23.1661 11.9313 24.2633 13.0284C24.557 13.322 24.9427 13.4689 25.3284 13.4689C25.6865 13.4689 26.0436 13.3407 26.3281 13.0877C26.3817 13.423 26.4089 13.7633 26.4089 14.106C26.4089 16.2187 25.3785 18.1763 23.6439 19.3769H16.356C14.6215 18.1763 13.591 16.2188 13.591 14.106C13.591 12.9688 13.8929 11.8517 14.4641 10.8754C14.6275 10.596 14.5335 10.2372 14.2542 10.0737C13.9748 9.91031 13.6159 10.0043 13.4525 10.2837C12.7765 11.4394 12.4191 12.7611 12.4191 14.106C12.4191 14.9346 12.5534 15.7428 12.8074 16.5051H5.53548C4.56806 16.5051 3.6611 17.0223 3.16845 17.8548L0.75665 21.9309C0.275869 22.7436 0.0217285 23.6722 0.0217285 24.6163V38.1155C0.0216504 39.1546 0.867119 40 1.90618 40H38.0938C39.1329 40 39.9783 39.1546 39.9783 38.1155V24.6163C39.9783 23.672 39.7241 22.7434 39.2434 21.9309L36.8314 17.8546C36.3388 17.0221 35.4318 16.5049 34.4644 16.5049H31.1719C30.8482 16.5049 30.5859 16.7673 30.5859 17.0909C30.5859 17.4145 30.8482 17.6768 31.1719 17.6768H34.4645C35.0196 17.6768 35.5402 17.9736 35.8229 18.4514L38.2349 22.5277C38.4011 22.8086 38.5323 23.1073 38.627 23.4171C38.4578 23.3671 38.279 23.3398 38.0938 23.3398H11.25C10.9263 23.3398 10.6641 23.6022 10.6641 23.9258C10.6641 24.2494 10.9263 24.5117 11.25 24.5117H38.0938C38.4868 24.5117 38.8065 24.8314 38.8065 25.2244V38.1155C38.8065 38.5084 38.4868 38.8281 38.0938 38.8281H1.90618C1.51321 38.8281 1.19353 38.5084 1.19353 38.1155V25.2244C1.19353 24.8314 1.51321 24.5117 1.90618 24.5117H8.51563C8.83931 24.5117 9.10157 24.2494 9.10157 23.9258C9.10157 23.6022 8.83931 23.3398 8.51563 23.3398H1.90618C1.72103 23.3398 1.54228 23.3671 1.37313 23.4171C1.46782 23.1074 1.59899 22.8086 1.76524 22.5277L4.1772 18.4514C4.45985 17.9736 4.9804 17.6768 5.53563 17.6768H13.3117C13.6422 18.2952 14.0586 18.8678 14.5522 19.3767H9.14485C8.82118 19.3767 8.55892 19.6391 8.55892 19.9627C8.55892 20.2863 8.82118 20.5486 9.14485 20.5486H30.8554C31.1791 20.5486 31.4413 20.2863 31.4413 19.9627C31.4413 19.6391 31.1791 19.3767 30.8554 19.3767H25.4481C25.9416 18.8677 26.3581 18.2952 26.6886 17.6768H28.4375C28.7612 17.6768 29.0234 17.4145 29.0234 17.0909C29.0234 16.7673 28.7612 16.5049 28.4375 16.5049H27.1925C27.4464 15.7427 27.5808 14.9345 27.5808 14.1059C27.5808 13.4278 27.4902 12.7577 27.3132 12.1087L27.5149 11.907H29.5231ZM33.6585 1.45172C33.6585 1.29742 33.784 1.17188 33.9383 1.17188H38.5266C38.6809 1.17188 38.8064 1.29734 38.8064 1.45172V10.8882C38.8064 11.0425 38.6809 11.168 38.5266 11.168H33.9383C33.784 11.168 33.6585 11.0425 33.6585 10.8882V1.45172ZM25.092 12.1996C24.2949 11.4026 24.2949 10.1056 25.0919 9.30859L27.2774 7.1232C27.6659 6.73477 27.8798 6.21828 27.8798 5.66891V4.76312C27.8798 4.43953 27.6175 4.17719 27.2938 4.17719C26.9702 4.17719 26.7079 4.43953 26.7079 4.76312V5.66891C26.7079 5.90523 26.6159 6.1275 26.4488 6.29461L24.6343 8.10906C23.3106 7.085 21.6859 6.52508 20 6.52508C19.94 6.52508 19.8804 6.52727 19.8206 6.52867L22.4692 3.88008C23.4619 2.88734 24.7818 2.34062 26.1857 2.34062H32.4866V9.27617C31.779 10.193 30.6842 10.7351 29.523 10.7351H28.6867L30.5866 8.83516C30.8155 8.60633 30.8155 8.23531 30.5866 8.00656C30.3577 7.77773 29.9868 7.77773 29.758 8.00656L25.5649 12.1997C25.4345 12.3301 25.2221 12.3299 25.092 12.1996Z" fill="#122F2A"/>
<path d="M26.0519 28.663C26.0499 28.6577 26.0477 28.6523 26.0455 28.6469C25.9345 28.3772 25.6746 28.2031 25.3831 28.2031H25.3823C25.0905 28.2034 24.8305 28.3782 24.72 28.6484C24.7182 28.6527 24.7164 28.6572 24.7148 28.6616L22.5532 34.3371C22.438 34.6395 22.5898 34.978 22.8923 35.0932C23.1943 35.2084 23.5331 35.0566 23.6484 34.7542L24.043 33.7181H26.7071L27.0975 34.7526C27.186 34.9872 27.409 35.1318 27.6458 35.1318C27.7145 35.1318 27.7844 35.1196 27.8526 35.0939C28.1553 34.9797 28.3081 34.6416 28.1938 34.3388L26.0519 28.663ZM24.4892 32.5462L25.3811 30.2045L26.2648 32.5462H24.4892Z" fill="#122F2A"/>
<path d="M35.9036 33.9305H34.0862V32.2505H35.7264C36.0501 32.2505 36.3124 31.9881 36.3124 31.6645C36.3124 31.3409 36.0501 31.0786 35.7264 31.0786H34.0862V29.3984H35.9037C36.2274 29.3984 36.4896 29.1361 36.4896 28.8125C36.4896 28.4889 36.2274 28.2266 35.9037 28.2266H33.5002C33.1766 28.2266 32.9143 28.4889 32.9143 28.8125V34.5165C32.9143 34.8401 33.1766 35.1024 33.5002 35.1024H35.9037C36.2274 35.1024 36.4896 34.8401 36.4896 34.5165C36.4896 34.1929 36.2273 33.9305 35.9036 33.9305Z" fill="#122F2A"/>
<path d="M21.297 28.2031C21.295 28.2031 21.2931 28.2031 21.2912 28.2031C20.9675 28.2062 20.7077 28.4711 20.7109 28.7947L20.7491 32.7389L17.7988 28.4669C17.6531 28.2559 17.3874 28.1642 17.1423 28.2405C16.8975 28.3168 16.7307 28.5434 16.7307 28.7998V34.5456C16.7307 34.8692 16.993 35.1316 17.3167 35.1316C17.6403 35.1316 17.9026 34.8692 17.9026 34.5456V30.6794L20.7197 34.7586C20.8971 35.015 21.1912 35.1245 21.4685 35.038C21.7528 34.9492 21.9365 34.6798 21.9365 34.3459L21.8827 28.7834C21.8796 28.4617 21.6179 28.2031 21.297 28.2031Z" fill="#122F2A"/>
<path d="M5.67903 28.2891H4.09693C3.94138 28.2891 3.79216 28.3509 3.68216 28.4611C3.57232 28.5713 3.51068 28.7205 3.51099 28.8761V28.8806V28.8808V34.3705C3.51099 34.4123 3.51552 34.453 3.5238 34.4922C3.53146 34.637 3.592 34.7745 3.69536 34.8771C3.80513 34.9861 3.95357 35.0472 4.10818 35.0472H4.11036C4.1581 35.047 5.2856 35.0427 5.73552 35.0348C7.34943 35.0066 8.52083 33.5907 8.52083 31.6681C8.52083 29.647 7.3788 28.2891 5.67903 28.2891ZM5.71505 33.863C5.48177 33.8671 5.04974 33.8703 4.69208 33.8724C4.68997 33.2135 4.68685 32.17 4.68685 31.662C4.68685 31.2382 4.68513 30.1457 4.68388 29.4609H5.67896C6.91028 29.4609 7.34896 30.6011 7.34896 31.6681C7.34896 32.7116 6.83771 33.8435 5.71505 33.863Z" fill="#122F2A"/>
<path d="M31.65 28.2031H28.4709C28.1473 28.2031 27.885 28.4655 27.885 28.7891C27.885 29.1127 28.1473 29.375 28.4709 29.375H29.4681V34.5456C29.4681 34.8692 29.7304 35.1316 30.0541 35.1316C30.3777 35.1316 30.64 34.8692 30.64 34.5456V29.375H31.6501C31.9738 29.375 32.236 29.1127 32.236 28.7891C32.236 28.4655 31.9737 28.2031 31.65 28.2031Z" fill="#122F2A"/>
<path d="M12.6481 28.2031C10.7379 28.2031 9.18384 29.7572 9.18384 31.6673C9.18384 33.5775 10.7379 35.1316 12.6481 35.1316C14.5582 35.1316 16.1123 33.5775 16.1123 31.6673C16.1123 29.7572 14.5582 28.2031 12.6481 28.2031ZM12.6481 33.9597C11.3841 33.9597 10.3557 32.9313 10.3557 31.6673C10.3557 30.4034 11.3841 29.375 12.6481 29.375C13.912 29.375 14.9404 30.4034 14.9404 31.6673C14.9404 32.9313 13.912 33.9597 12.6481 33.9597Z" fill="#122F2A"/>
</g>
<defs>
<clipPath id="clip0_28028_331">
<rect width="40" height="40" fill="white"/>
</clipPath>
</defs>
</svg>
