<svg width="24" height="24" viewBox="0 0 24 24" fill="none" xmlns="http://www.w3.org/2000/svg">
<path d="M21.3724 7.43531C21.351 7.24556 21.1909 7.10156 20.9996 7.10156C20.5226 7.10156 20.1064 7.28456 19.7962 7.63069C18.9262 8.60231 19.092 10.5808 19.1246 10.8951V11.2592C17.8241 11.3199 17.5091 11.7201 16.9882 12.5413C16.8075 12.8267 16.5836 13.1796 16.2439 13.5958L14.2657 14.9503C14.0336 15.1311 12 16.7514 12 18.0002C12 19.0847 12.1537 19.7972 12.2662 20.3177C12.327 20.5993 12.375 20.8221 12.375 21.0002V22.1252C12.375 22.6213 13.125 22.6217 13.125 22.1252V21.0002C13.125 20.7422 13.0669 20.4722 12.9994 20.1594C12.894 19.6723 12.75 19.0044 12.75 18.0002C12.75 17.3327 13.9624 16.1383 14.7079 15.5556L16.7119 14.1846C16.7407 14.1647 16.7666 14.1411 16.7891 14.1141C17.1776 13.6442 17.424 13.2557 17.622 12.9433C18.03 12.3002 18.1796 12.0639 19.0417 12.0118C18.9345 12.5098 18.7309 13.3348 18.4357 14.0323C18.1935 14.2659 17.2249 15.2038 16.6016 15.8683C16.2626 16.2298 16.8082 16.7432 17.1487 16.3813C17.8369 15.6471 18.9982 14.5314 19.0099 14.5202C19.0455 14.4861 19.074 14.4452 19.0939 14.4002C19.6061 13.2294 19.8596 11.7497 19.8701 11.6874C19.8776 11.6421 19.875 10.9577 19.8754 10.8748C19.8754 10.3299 19.7134 8.84719 20.3561 8.13056C20.4491 8.02669 20.5522 7.95319 20.6711 7.90744L20.9981 10.8527C20.955 11.2719 20.6254 14.4928 20.6284 14.9713C20.5691 15.1772 19.878 15.8143 19.3729 16.2797C18.0934 17.4594 16.5004 18.9279 16.5004 20.2498V22.1248C16.5004 22.6209 17.2504 22.6213 17.2504 22.1248V20.2498C17.2504 19.2564 18.7714 17.8547 19.8817 16.8313C20.8905 15.9013 21.3754 15.4348 21.3754 14.9998C21.3754 14.5922 21.6446 11.8948 21.7485 10.8898C21.7552 10.8126 21.7657 11.0042 21.3724 7.43531Z" fill="#122F2A"/>
<path d="M2.62759 7.43531C2.64896 7.24556 2.80909 7.10156 3.00034 7.10156C3.47734 7.10156 3.89359 7.28456 4.20371 7.63069C5.07371 8.60231 4.90796 10.5808 4.87534 10.8951V11.2592C6.17584 11.3199 6.49084 11.7201 7.01171 12.5413C7.19246 12.8267 7.41634 13.1796 7.75609 13.5958L9.73421 14.9503C9.96634 15.1311 12 16.7514 12 18.0002C12 19.0847 11.8462 19.7972 11.7337 20.3177C11.673 20.5993 11.625 20.8221 11.625 21.0002V22.1252C11.625 22.6213 10.875 22.6217 10.875 22.1252V21.0002C10.875 20.7422 10.9331 20.4722 11.0006 20.1594C11.106 19.6723 11.25 19.0044 11.25 18.0002C11.25 17.3327 10.0376 16.1383 9.29209 15.5556L7.28809 14.1846C7.25921 14.1647 7.23334 14.1411 7.21084 14.1141C6.82234 13.6442 6.57596 13.2557 6.37796 12.9433C5.96996 12.3002 5.82034 12.0639 4.95821 12.0118C5.06546 12.5098 5.26909 13.3348 5.56421 14.0323C5.80646 14.2659 6.77509 15.2038 7.39834 15.8683C7.73734 16.2298 7.19171 16.7432 6.85121 16.3813C6.16309 15.6471 5.00171 14.5314 4.99009 14.5202C4.95446 14.4861 4.92596 14.4452 4.90609 14.4002C4.39384 13.2294 4.14034 11.7497 4.12984 11.6874C4.12234 11.6421 4.12496 10.9577 4.12459 10.8748C4.12459 10.3299 4.28659 8.84719 3.64384 8.13056C3.55084 8.02669 3.44771 7.95319 3.32884 7.90744L3.00184 10.8527C3.04496 11.2719 3.37459 14.4928 3.37159 14.9713C3.43084 15.1772 4.12196 15.8143 4.62709 16.2797C5.90659 17.4594 7.49959 18.9279 7.49959 20.2498V22.1248C7.49959 22.6209 6.74959 22.6213 6.74959 22.1248V20.2498C6.74959 19.2564 5.22859 17.8547 4.11821 16.8313C3.11021 15.9017 2.62534 15.4352 2.62534 15.0002C2.62534 14.5926 2.35609 11.8952 2.25221 10.8902C2.24471 10.8126 2.23421 11.0042 2.62759 7.43531Z" fill="#122F2A"/>
<path d="M5.99951 7.5C5.99951 10.7584 8.66539 13.5 11.9995 13.5C15.3303 13.5 17.9995 10.7614 17.9995 7.5C17.9995 4.2375 15.3295 1.5 11.9995 1.5C8.66164 1.5 5.99951 4.24463 5.99951 7.5ZM17.2304 7.125H15.364C15.337 6.31762 15.2249 5.55938 15.0415 4.875H16.5389C16.9285 5.54588 17.1726 6.30938 17.2304 7.125ZM16.5393 10.125H15.0419C15.2253 9.44062 15.3374 8.68238 15.3644 7.875H17.2308C17.1726 8.69062 16.9285 9.45412 16.5393 10.125ZM6.76864 7.875H8.63501C8.66201 8.68238 8.77414 9.44062 8.95751 10.125H7.46014C7.07014 9.45412 6.82639 8.69062 6.76864 7.875ZM9.38426 7.875H11.6245V10.125H9.74164C9.54139 9.45037 9.41464 8.68575 9.38426 7.875ZM11.6245 10.875V12.6874C10.987 12.4954 10.4163 11.829 10.009 10.875H11.6245ZM12.3745 12.6874V10.875H13.99C13.5828 11.829 13.012 12.4954 12.3745 12.6874ZM12.3745 10.125V7.875H14.6148C14.5844 8.68575 14.4576 9.45037 14.2574 10.125H12.3745ZM14.6148 7.125H12.3745V4.875H14.2574C14.4576 5.54963 14.5844 6.31425 14.6148 7.125ZM12.3745 4.125V2.31262C13.012 2.50462 13.5828 3.171 13.99 4.125H12.3745ZM11.6245 2.31262V4.125H10.009C10.4163 3.171 10.987 2.50462 11.6245 2.31262ZM11.6245 4.875V7.125H9.38426C9.41464 6.31425 9.54139 5.54963 9.74164 4.875H11.6245ZM8.63464 7.125H6.76864C6.82676 6.30938 7.07051 5.54588 7.46014 4.875H8.95751C8.77414 5.55938 8.66164 6.31762 8.63464 7.125ZM7.98401 10.875H9.19301C9.40901 11.4487 9.68239 11.9445 9.99551 12.3506C9.21101 12.0251 8.52289 11.5151 7.98401 10.875ZM14.0035 12.3506C14.317 11.9445 14.59 11.4491 14.806 10.875H16.015C15.4761 11.5151 14.788 12.0251 14.0035 12.3506ZM16.015 4.125H14.806C14.59 3.55125 14.3166 3.0555 14.0035 2.64938C14.788 2.97488 15.4761 3.48487 16.015 4.125ZM9.99551 2.64938C9.68201 3.0555 9.40864 3.55125 9.19264 4.125H7.98364C8.52289 3.48487 9.21101 2.97488 9.99551 2.64938Z" fill="#122F2A"/>
</svg>
