<svg width="20" height="20" viewBox="0 0 20 20" fill="none" xmlns="http://www.w3.org/2000/svg">
<path d="M17.8103 6.19219C17.7925 6.03406 17.6591 5.91406 17.4997 5.91406C17.1022 5.91406 16.7553 6.06656 16.4969 6.355C15.7719 7.16469 15.91 8.81344 15.9372 9.07531V9.37875C14.8534 9.42937 14.5909 9.76281 14.1569 10.4472C14.0062 10.685 13.8197 10.9791 13.5366 11.3259L11.8881 12.4547C11.6947 12.6053 10 13.9556 10 14.9963C10 15.9 10.1281 16.4937 10.2219 16.9275C10.2725 17.1622 10.3125 17.3478 10.3125 17.4963V18.4338C10.3125 18.8472 10.9375 18.8475 10.9375 18.4338V17.4963C10.9375 17.2812 10.8891 17.0562 10.8328 16.7956C10.745 16.3897 10.625 15.8331 10.625 14.9963C10.625 14.44 11.6353 13.4447 12.2566 12.9591L13.9266 11.8166C13.9506 11.8 13.9722 11.7803 13.9909 11.7578C14.3147 11.3663 14.52 11.0425 14.685 10.7822C15.025 10.2462 15.1497 10.0494 15.8681 10.0059C15.7787 10.4209 15.6091 11.1084 15.3631 11.6897C15.1612 11.8844 14.3541 12.6659 13.8347 13.2197C13.5522 13.5209 14.0069 13.9487 14.2906 13.6472C14.8641 13.0353 15.8319 12.1056 15.8416 12.0963C15.8712 12.0678 15.895 12.0338 15.9116 11.9963C16.3384 11.0206 16.5497 9.7875 16.5584 9.73563C16.5647 9.69781 16.5625 9.1275 16.5628 9.05844C16.5628 8.60438 16.4278 7.36875 16.9634 6.77156C17.0409 6.685 17.1269 6.62375 17.2259 6.58563L17.4984 9.04C17.4625 9.38938 17.1878 12.0734 17.1903 12.4722C17.1409 12.6438 16.565 13.1747 16.1441 13.5625C15.0778 14.5456 13.7503 15.7694 13.7503 16.8709V18.4334C13.7503 18.8469 14.3753 18.8472 14.3753 18.4334V16.8709C14.3753 16.0431 15.6428 14.875 16.5681 14.0222C17.4087 13.2472 17.8128 12.8584 17.8128 12.4959C17.8128 12.1562 18.0372 9.90844 18.1237 9.07094C18.1294 9.00656 18.1381 9.16625 17.8103 6.19219Z" fill="#0B4E3D"/>
<path d="M2.18966 6.19219C2.20747 6.03406 2.34091 5.91406 2.50028 5.91406C2.89778 5.91406 3.24466 6.06656 3.50309 6.355C4.22809 7.16469 4.08997 8.81344 4.06278 9.07531V9.37875C5.14653 9.42937 5.40903 9.76281 5.84309 10.4472C5.99372 10.685 6.18028 10.9791 6.46341 11.3259L8.11184 12.4547C8.30528 12.6053 9.99997 13.9556 9.99997 14.9963C9.99997 15.9 9.87184 16.4937 9.77809 16.9275C9.72747 17.1622 9.68747 17.3478 9.68747 17.4963V18.4338C9.68747 18.8472 9.06247 18.8475 9.06247 18.4338V17.4963C9.06247 17.2812 9.11091 17.0562 9.16716 16.7956C9.25497 16.3897 9.37497 15.8331 9.37497 14.9963C9.37497 14.44 8.36466 13.4447 7.74341 12.9591L6.07341 11.8166C6.04934 11.8 6.02778 11.7803 6.00903 11.7578C5.68528 11.3663 5.47997 11.0425 5.31497 10.7822C4.97497 10.2462 4.85028 10.0494 4.13184 10.0059C4.22122 10.4209 4.39091 11.1084 4.63684 11.6897C4.83872 11.8844 5.64591 12.6659 6.16528 13.2197C6.44778 13.5209 5.99309 13.9487 5.70934 13.6472C5.13591 13.0353 4.16809 12.1056 4.15841 12.0963C4.12872 12.0678 4.10497 12.0338 4.08841 11.9963C3.66153 11.0206 3.45028 9.7875 3.44153 9.73563C3.43528 9.69781 3.43747 9.1275 3.43716 9.05844C3.43716 8.60438 3.57216 7.36875 3.03653 6.77156C2.95903 6.685 2.87309 6.62375 2.77403 6.58563L2.50153 9.04C2.53747 9.38938 2.81216 12.0734 2.80966 12.4722C2.85903 12.6438 3.43497 13.1747 3.85591 13.5625C4.92216 14.5456 6.24966 15.7694 6.24966 16.8709V18.4334C6.24966 18.8469 5.62466 18.8472 5.62466 18.4334V16.8709C5.62466 16.0431 4.35716 14.875 3.43184 14.0222C2.59184 13.2475 2.18778 12.8587 2.18778 12.4963C2.18778 12.1566 1.96341 9.90875 1.87684 9.07125C1.87059 9.00656 1.86184 9.16625 2.18966 6.19219Z" fill="#0B4E3D"/>
<path d="M4.99976 6.25C4.99976 8.96531 7.22132 11.25 9.99976 11.25C12.7754 11.25 14.9998 8.96781 14.9998 6.25C14.9998 3.53125 12.7748 1.25 9.99976 1.25C7.21819 1.25 4.99976 3.53719 4.99976 6.25ZM14.3588 5.9375H12.8035C12.781 5.26469 12.6876 4.63281 12.5348 4.0625H13.7826C14.1073 4.62156 14.3107 5.25781 14.3588 5.9375ZM13.7829 8.4375H12.5351C12.6879 7.86719 12.7813 7.23531 12.8038 6.5625H14.3591C14.3107 7.24219 14.1073 7.87844 13.7829 8.4375ZM5.64069 6.5625H7.19601C7.21851 7.23531 7.31194 7.86719 7.46476 8.4375H6.21694C5.89194 7.87844 5.68882 7.24219 5.64069 6.5625ZM7.82038 6.5625H9.68726V8.4375H8.11819C7.95132 7.87531 7.84569 7.23812 7.82038 6.5625ZM9.68726 9.0625V10.5728C9.15601 10.4128 8.68038 9.8575 8.34101 9.0625H9.68726ZM10.3123 10.5728V9.0625H11.6585C11.3191 9.8575 10.8435 10.4128 10.3123 10.5728ZM10.3123 8.4375V6.5625H12.1791C12.1538 7.23812 12.0482 7.87531 11.8813 8.4375H10.3123ZM12.1791 5.9375H10.3123V4.0625H11.8813C12.0482 4.62469 12.1538 5.26188 12.1791 5.9375ZM10.3123 3.4375V1.92719C10.8435 2.08719 11.3191 2.6425 11.6585 3.4375H10.3123ZM9.68726 1.92719V3.4375H8.34101C8.68038 2.6425 9.15601 2.08719 9.68726 1.92719ZM9.68726 4.0625V5.9375H7.82038C7.84569 5.26188 7.95132 4.62469 8.11819 4.0625H9.68726ZM7.19569 5.9375H5.64069C5.68913 5.25781 5.89226 4.62156 6.21694 4.0625H7.46476C7.31194 4.63281 7.21819 5.26469 7.19569 5.9375ZM6.65351 9.0625H7.66101C7.84101 9.54062 8.06882 9.95375 8.32976 10.2922C7.67601 10.0209 7.10257 9.59594 6.65351 9.0625ZM11.6698 10.2922C11.931 9.95375 12.1585 9.54094 12.3385 9.0625H13.346C12.8969 9.59594 12.3235 10.0209 11.6698 10.2922ZM13.346 3.4375H12.3385C12.1585 2.95938 11.9307 2.54625 11.6698 2.20781C12.3235 2.47906 12.8969 2.90406 13.346 3.4375ZM8.32976 2.20781C8.06851 2.54625 7.84069 2.95938 7.66069 3.4375H6.65319C7.10257 2.90406 7.67601 2.47906 8.32976 2.20781Z" fill="#0B4E3D"/>
</svg>
