<svg width="50" height="50" viewBox="0 0 50 50" fill="none" xmlns="http://www.w3.org/2000/svg">
<g clip-path="url(#clip0_28025_1741)">
<path d="M42.7125 0.0187622C42.4796 -0.0126052 42.2427 0.00643013 42.0179 0.0745794C41.793 0.142729 41.5854 0.2584 41.4091 0.413762C41.2285 0.571197 41.0837 0.765462 40.9844 0.983508C40.885 1.20155 40.8335 1.43833 40.8333 1.67793V22.6029C39.9805 21.7482 38.962 21.0766 37.8405 20.6294C36.7189 20.1822 35.5178 19.9687 34.3108 20.0021C30.7341 20.0021 27.8941 22.4579 26.6666 23.7254C25.4391 22.4579 22.5991 20.0021 19.0225 20.0021C17.8155 19.9687 16.6144 20.1822 15.4928 20.6294C14.3712 21.0766 13.3528 21.7482 12.5 22.6029V19.1688C14.0465 19.167 15.5292 18.5519 16.6228 17.4583C17.7164 16.3647 18.3315 14.882 18.3333 13.3354V2.5021C18.336 2.175 18.2727 1.85073 18.1473 1.54863C18.0218 1.24653 17.8368 0.972791 17.6033 0.743762C17.2996 0.433534 16.9197 0.208627 16.5017 0.0916121C16.0837 -0.0254026 15.6422 -0.0304089 15.2216 0.0770956C14.6713 0.226178 14.1865 0.554893 13.8444 1.01102C13.5023 1.46715 13.3224 2.02452 13.3333 2.5946V9.16876C13.3336 9.27983 13.3111 9.38978 13.2672 9.49183C13.2234 9.59387 13.1591 9.68585 13.0783 9.7621C12.9924 9.84677 12.8891 9.91167 12.7755 9.95226C12.662 9.99285 12.5409 10.0082 12.4208 9.9971C12.206 9.96108 12.0115 9.84829 11.8736 9.67969C11.7356 9.51109 11.6636 9.29815 11.6708 9.08043V2.5021C11.6735 2.175 11.6102 1.85073 11.4848 1.54863C11.3593 1.24653 11.1743 0.972791 10.9408 0.743762C10.6371 0.433534 10.2572 0.208627 9.83921 0.0916121C9.42117 -0.0254026 8.97971 -0.0304089 8.55913 0.0770956C8.00801 0.225395 7.52233 0.553776 7.17939 1.00997C6.83645 1.46617 6.65595 2.02397 6.66663 2.5946V9.16876C6.66689 9.27983 6.6444 9.38978 6.60055 9.49183C6.55669 9.59387 6.4924 9.68585 6.41163 9.7621C6.32575 9.84677 6.22242 9.91167 6.10885 9.95226C5.99529 9.99285 5.87423 10.0082 5.75413 9.9971C5.53809 9.96194 5.34229 9.84917 5.20344 9.67996C5.0646 9.51074 4.99225 9.29668 4.99997 9.07793V2.5021C5.00251 2.17514 4.93919 1.85103 4.81377 1.54908C4.68835 1.24713 4.50341 0.973526 4.26997 0.744596C3.96631 0.434367 3.58641 0.20946 3.16837 0.0924455C2.75034 -0.0245693 2.30888 -0.0295756 1.8883 0.0779289C1.33809 0.226977 0.853455 0.555568 0.511337 1.01152C0.16922 1.46748 -0.0107645 2.02466 -3.49048e-05 2.5946V13.3354C0.00172956 14.882 0.616878 16.3647 1.71046 17.4583C2.80404 18.5519 4.28674 19.167 5.8333 19.1688V46.6688C5.83329 47.108 5.92009 47.5429 6.0887 47.9484C6.25731 48.354 6.5044 48.7222 6.81579 49.032C7.12717 49.3418 7.4967 49.5869 7.90315 49.7534C8.30959 49.9199 8.74492 50.0044 9.18413 50.0021C9.2383 50.0021 9.29247 50.0021 9.34663 49.9979C10.2152 49.9321 11.0258 49.5365 11.6121 48.8923C12.1984 48.248 12.5161 47.4039 12.5 46.5329V37.0988C16.43 43.7654 23.8041 48.5688 25.7025 49.7313C25.9927 49.9097 26.3268 50.0042 26.6675 50.0042C27.0082 50.0042 27.3422 49.9097 27.6325 49.7313C29.53 48.5688 36.9033 43.7654 40.8333 37.0988V46.6688C40.8333 47.108 40.9201 47.5429 41.0887 47.9484C41.2573 48.354 41.5044 48.7222 41.8158 49.032C42.1272 49.3418 42.4967 49.5869 42.9031 49.7534C43.3096 49.9199 43.7449 50.0044 44.1841 50.0021C44.2383 50.0021 44.2925 50.0021 44.3508 49.9979C45.2187 49.9311 46.0282 49.5351 46.6136 48.8909C47.1991 48.2468 47.5161 47.4032 47.5 46.5329V29.8946C48.2152 29.7099 48.8489 29.2929 49.3014 28.709C49.7539 28.1251 49.9996 27.4075 50 26.6688V8.28543C49.9966 6.25746 49.2551 4.30006 47.914 2.7788C46.573 1.25755 44.724 0.276457 42.7125 0.0187622ZM10.8333 18.3354V25.0263C10.2898 26.1935 10.0055 27.4646 9.99997 28.7521C10.0103 30.3801 10.2919 31.995 10.8333 33.5304V46.5304C10.8454 46.9734 10.6907 47.4049 10.3998 47.7392C10.1088 48.0735 9.70291 48.2863 9.26246 48.3354C9.03362 48.3473 8.80476 48.3124 8.58984 48.2329C8.37493 48.1534 8.17847 48.0309 8.01246 47.8729C7.84955 47.7177 7.72006 47.5308 7.63193 47.3237C7.5438 47.1167 7.4989 46.8938 7.49997 46.6688V18.3354C7.49997 18.1144 7.41217 17.9025 7.25589 17.7462C7.09961 17.5899 6.88765 17.5021 6.66663 17.5021H5.8333C4.72823 17.5021 3.66842 17.0631 2.88702 16.2817C2.10562 15.5003 1.66663 14.4405 1.66663 13.3354V2.5946C1.65856 2.39753 1.71497 2.2032 1.82731 2.04109C1.93965 1.87898 2.10178 1.75791 2.28913 1.69626C2.43141 1.65679 2.58182 1.6573 2.72384 1.69772C2.86585 1.73815 2.99397 1.81694 3.09413 1.92543C3.17065 2.00058 3.23127 2.09037 3.27235 2.18944C3.31344 2.28851 3.33417 2.39484 3.3333 2.5021V9.0771C3.32452 9.71453 3.55357 10.3324 3.97575 10.81C4.39793 11.2877 4.98295 11.5909 5.61663 11.6604C5.96172 11.6892 6.30903 11.6462 6.63668 11.5341C6.96433 11.4221 7.26523 11.2434 7.52043 11.0093C7.77563 10.7753 7.97961 10.4909 8.1195 10.1741C8.2594 9.85735 8.33219 9.51505 8.3333 9.16876V2.5946C8.32523 2.39753 8.38164 2.2032 8.49398 2.04109C8.60631 1.87898 8.76845 1.75791 8.9558 1.69626C9.0789 1.66574 9.20732 1.66343 9.33144 1.68951C9.45556 1.71559 9.57219 1.76938 9.6726 1.84687C9.77301 1.92436 9.85461 2.02355 9.91129 2.13701C9.96798 2.25047 9.99829 2.37527 9.99997 2.5021V9.0771C9.99118 9.71453 10.2202 10.3324 10.6424 10.81C11.0646 11.2877 11.6496 11.5909 12.2833 11.6604C12.6284 11.6892 12.9757 11.6462 13.3033 11.5341C13.631 11.4221 13.9319 11.2434 14.1871 11.0093C14.4423 10.7753 14.6463 10.4909 14.7862 10.1741C14.9261 9.85735 14.9989 9.51505 15 9.16876V2.5946C14.9919 2.39753 15.0483 2.2032 15.1606 2.04109C15.273 1.87898 15.4351 1.75791 15.6225 1.69626C15.7647 1.65679 15.9152 1.6573 16.0572 1.69772C16.1992 1.73815 16.3273 1.81694 16.4275 1.92543C16.504 2.00058 16.5646 2.09037 16.6057 2.18944C16.6468 2.28851 16.6675 2.39484 16.6666 2.5021V13.3354C16.6666 14.4405 16.2276 15.5003 15.4462 16.2817C14.6648 17.0631 13.605 17.5021 12.5 17.5021H11.6666C11.4456 17.5021 11.2337 17.5899 11.0774 17.7462C10.9211 17.9025 10.8333 18.1144 10.8333 18.3354ZM26.7633 48.3088C26.7343 48.3259 26.7012 48.335 26.6675 48.335C26.6338 48.335 26.6007 48.3259 26.5716 48.3088C24.0833 46.7863 11.6666 38.6829 11.6666 28.7521C11.6636 27.7978 11.8538 26.8529 12.2259 25.9741C12.598 25.0954 13.1442 24.3011 13.8316 23.6392C14.5189 22.9773 15.3332 22.4615 16.2254 22.1228C17.1175 21.7842 18.069 21.6297 19.0225 21.6688C22.925 21.6688 25.9841 25.4538 26.0141 25.4921C26.0953 25.5855 26.1955 25.6604 26.3081 25.7118C26.4206 25.7631 26.5429 25.7897 26.6666 25.7897C26.7904 25.7897 26.9126 25.7631 27.0252 25.7118C27.1378 25.6604 27.238 25.5855 27.3191 25.4921C27.3491 25.4538 30.4083 21.6688 34.3108 21.6688C35.2643 21.6297 36.2157 21.7842 37.1079 22.1228C38 22.4615 38.8143 22.9773 39.5017 23.6392C40.1891 24.3011 40.7353 25.0954 41.1074 25.9741C41.4794 26.8529 41.6697 27.7978 41.6666 28.7521C41.6666 38.6829 29.25 46.7863 26.7633 48.3088ZM48.3333 26.6688C48.3333 27.1108 48.1577 27.5347 47.8451 27.8473C47.5326 28.1598 47.1087 28.3354 46.6666 28.3354C46.4456 28.3354 46.2337 28.4232 46.0774 28.5795C45.9211 28.7358 45.8333 28.9478 45.8333 29.1688V46.5329C45.8448 46.9755 45.6898 47.4063 45.3989 47.7401C45.108 48.0739 44.7025 48.2863 44.2625 48.3354C44.0336 48.3474 43.8047 48.3125 43.5898 48.233C43.3749 48.1534 43.1785 48.0309 43.0125 47.8729C42.8496 47.7177 42.7201 47.5308 42.6319 47.3237C42.5438 47.1167 42.4989 46.8938 42.5 46.6688V33.5304C43.0413 31.995 43.323 30.3801 43.3333 28.7521C43.3279 27.4643 43.0436 26.1929 42.5 25.0254V1.66876C44.1101 1.87486 45.5902 2.66007 46.6637 3.87771C47.7371 5.09536 48.3306 6.66215 48.3333 8.28543V26.6688Z" fill="#0B4E3D"/>
<path d="M36.6667 34.169H33.3333C33.1962 34.169 33.0611 34.2028 32.9402 34.2675C32.8192 34.3322 32.7161 34.4258 32.64 34.5399L31.8267 35.7599L29.9325 31.3432C29.869 31.1938 29.7633 31.0661 29.6283 30.976C29.4933 30.8858 29.3348 30.8371 29.1725 30.8357H29.1667C29.0054 30.8357 28.8477 30.8824 28.7125 30.9703C28.5773 31.0582 28.4705 31.1833 28.405 31.3307L25.9883 36.7757L24.1342 30.5965C24.0846 30.4304 23.9844 30.2839 23.8475 30.1773C23.7107 30.0708 23.5441 30.0097 23.3708 30.0024C23.197 29.989 23.0235 30.0329 22.8769 30.1274C22.7303 30.2219 22.6187 30.3618 22.5592 30.5257L21.1025 34.169H18.3333C18.1123 34.169 17.9004 34.2568 17.7441 34.4131C17.5878 34.5694 17.5 34.7813 17.5 35.0024C17.5 35.2234 17.5878 35.4353 17.7441 35.5916C17.9004 35.7479 18.1123 35.8357 18.3333 35.8357H21.6667C21.8333 35.8358 21.9962 35.7858 22.1342 35.6924C22.2722 35.599 22.379 35.4663 22.4408 35.3115L23.2208 33.3607L25.035 39.4082C25.0839 39.5713 25.1816 39.7156 25.3149 39.8215C25.4483 39.9274 25.6109 39.99 25.7808 40.0007L25.8333 40.0024C25.9946 40.0024 26.1524 39.9556 26.2875 39.8678C26.4227 39.7799 26.5295 39.6547 26.595 39.5074L29.1525 33.7524L30.9025 37.8307C30.9616 37.9687 31.0569 38.0881 31.1783 38.1763C31.2997 38.2646 31.4427 38.3185 31.5921 38.3322C31.7416 38.346 31.892 38.3191 32.0275 38.2544C32.1629 38.1898 32.2784 38.0897 32.3617 37.9649L33.7792 35.8357H36.6667C36.8877 35.8357 37.0996 35.7479 37.2559 35.5916C37.4122 35.4353 37.5 35.2234 37.5 35.0024C37.5 34.7813 37.4122 34.5694 37.2559 34.4131C37.0996 34.2568 36.8877 34.169 36.6667 34.169Z" fill="#0B4E3D"/>
</g>
<defs>
<clipPath id="clip0_28025_1741">
<rect width="50" height="50" fill="white"/>
</clipPath>
</defs>
</svg>
