<svg width="50" height="50" viewBox="0 0 50 50" fill="none" xmlns="http://www.w3.org/2000/svg">
<g clip-path="url(#clip0_28025_1750)">
<path d="M9.375 14.0625V15.625C9.375 17.2797 10.2383 18.7328 11.5367 19.5672C11.1539 20.0305 10.5922 20.3125 9.97187 20.3125H9.85781C7.86875 20.3125 6.25 21.9305 6.25 23.9203V28.125C6.25 28.557 6.6 28.9062 7.03125 28.9062H21.0938C21.525 28.9062 21.875 28.557 21.875 28.125V25.7812H28.125V28.125C28.125 28.557 28.475 28.9062 28.9062 28.9062H42.9688C43.4 28.9062 43.75 28.557 43.75 28.125V23.9203C43.75 21.9305 42.1312 20.3125 40.1422 20.3125H40.0281C39.4078 20.3125 38.8469 20.0305 38.4641 19.5672C39.7617 18.7328 40.625 17.2797 40.625 15.625V14.0625C40.625 11.4773 38.5227 9.375 35.9375 9.375C33.3523 9.375 31.25 11.4773 31.25 14.0625V15.625C31.25 17.2797 32.1133 18.7328 33.4117 19.5672C33.1773 19.8508 32.875 20.0594 32.5312 20.1813C31.9844 18.8828 30.6992 17.9688 29.2047 17.9688H29.0906C28.4703 17.9688 27.9094 17.6867 27.5266 17.2234C28.8242 16.3891 29.6875 14.9359 29.6875 13.2812V11.7188C29.6875 9.13359 27.5852 7.03125 25 7.03125C22.4148 7.03125 20.3125 9.13359 20.3125 11.7188V13.2812C20.3125 14.9359 21.1758 16.3891 22.4742 17.2234C22.0914 17.6867 21.5297 17.9688 20.9094 17.9688H20.7953C19.3 17.9688 18.0156 18.8828 17.4688 20.182C17.125 20.0602 16.8227 19.8516 16.5883 19.568C17.8867 18.7328 18.75 17.2797 18.75 15.625V14.0625C18.75 11.4773 16.6477 9.375 14.0625 9.375C11.4773 9.375 9.375 11.4773 9.375 14.0625ZM20.3125 27.3438H7.8125V23.9203C7.8125 22.793 8.72969 21.875 9.85781 21.875H9.97187C10.1727 21.875 10.3688 21.8539 10.5617 21.8227L10.843 22.1039C11.7023 22.9641 12.8461 23.4375 14.0625 23.4375C15.2359 23.4375 16.3391 22.993 17.1875 22.1898V25C17.1875 25.432 17.5375 25.7812 17.9688 25.7812H20.3125V27.3438ZM40.1422 21.875C41.2703 21.875 42.1875 22.793 42.1875 23.9203V27.3438H29.6875V25.7812H32.0312C32.4625 25.7812 32.8125 25.432 32.8125 25V22.1898C33.6609 22.993 34.7641 23.4375 35.9375 23.4375C37.1539 23.4375 38.2977 22.9641 39.157 22.1039L39.4383 21.8227C39.6312 21.8539 39.8273 21.875 40.0281 21.875H40.1422ZM32.8125 14.0625C32.8125 12.3391 34.2141 10.9375 35.9375 10.9375C37.6609 10.9375 39.0625 12.3391 39.0625 14.0625V15.625C39.0625 17.3484 37.6609 18.75 35.9375 18.75C34.2141 18.75 32.8125 17.3484 32.8125 15.625V14.0625ZM35.9375 20.3125C36.2977 20.3125 36.6469 20.268 36.9844 20.1906C37.2219 20.568 37.5203 20.8898 37.8656 21.15C36.7773 22.0617 35.0969 22.0617 34.0094 21.15C34.3547 20.8898 34.6539 20.568 34.8906 20.1906C35.2281 20.268 35.5773 20.3125 35.9375 20.3125ZM21.875 11.7188C21.875 9.99531 23.2766 8.59375 25 8.59375C26.7234 8.59375 28.125 9.99531 28.125 11.7188V13.2812C28.125 15.0047 26.7234 16.4062 25 16.4062C23.2766 16.4062 21.875 15.0047 21.875 13.2812V11.7188ZM25 17.9688C25.3602 17.9688 25.7094 17.9242 26.0469 17.8469C26.2844 18.2242 26.5828 18.5461 26.9281 18.8063C25.8398 19.718 24.1594 19.718 23.0719 18.8063C23.4172 18.5461 23.7164 18.2242 23.9531 17.8469C24.2906 17.9242 24.6398 17.9688 25 17.9688ZM18.75 21.5766C18.75 20.4492 19.6672 19.5312 20.7953 19.5312H20.9094C21.1102 19.5312 21.3062 19.5102 21.4992 19.4789L21.7805 19.7602C22.6398 20.6203 23.7836 21.0938 25 21.0938C26.2164 21.0938 27.3602 20.6203 28.2195 19.7602L28.5008 19.4789C28.6937 19.5102 28.8898 19.5312 29.0906 19.5312H29.2047C30.3328 19.5312 31.25 20.4492 31.25 21.5766V24.2188H18.75V21.5766ZM15.9906 21.1492C14.9023 22.0609 13.2219 22.0609 12.1344 21.1492C12.4797 20.8891 12.7789 20.5672 13.0156 20.1898C13.3531 20.268 13.7023 20.3125 14.0625 20.3125C14.4227 20.3125 14.7719 20.268 15.1094 20.1906C15.3461 20.568 15.6453 20.8898 15.9906 21.1492ZM17.1875 14.0625V15.625C17.1875 17.3484 15.7859 18.75 14.0625 18.75C12.3391 18.75 10.9375 17.3484 10.9375 15.625V14.0625C10.9375 12.3391 12.3391 10.9375 14.0625 10.9375C15.7859 10.9375 17.1875 12.3391 17.1875 14.0625Z" fill="#0B4E3D"/>
<path d="M44.2922 33.843L28.2852 38.2086C28.1742 38.0391 28.0453 37.8773 27.8961 37.7281L22.4273 32.2594C22.2812 32.1133 22.082 32.0312 21.875 32.0312H13.2812V31.25C13.2812 30.818 12.9312 30.4688 12.5 30.4688H7.8125H1.5625C1.13125 30.4688 0.78125 30.818 0.78125 31.25V48.4375C0.78125 48.8695 1.13125 49.2188 1.5625 49.2188H7.8125C8.24375 49.2188 8.59375 48.8695 8.59375 48.4375V47.6562H12.5C12.9312 47.6562 13.2812 47.307 13.2812 46.875V46.0938H18.6234L23.1906 47.6156C23.2711 47.6422 23.3539 47.6562 23.4375 47.6562C23.5234 47.6562 23.6094 47.6414 23.6914 47.6133L48.6914 39.0195C49.007 38.9117 49.2188 38.6148 49.2188 38.2812V37.5C49.2188 36.7562 49.0086 36.032 48.6102 35.4047C47.7359 34.0313 45.9594 33.3891 44.2922 33.843ZM7.03125 47.6562H2.34375V32.0312H7.03125V47.6562ZM11.7188 46.0938H8.59375V32.0312H11.7188V46.0938ZM47.6562 37.7234L23.4336 46.05L18.9969 44.5711C18.9172 44.5453 18.8336 44.5312 18.75 44.5312H13.2812V33.5938H21.5516L26.7914 38.8336C27.3484 39.3906 27.3484 40.2969 26.7914 40.8539C26.2344 41.4109 25.3281 41.4109 24.7711 40.8539L20.8648 36.9477L19.7602 38.0523L23.6664 41.9586C24.2492 42.5414 25.0156 42.8328 25.7812 42.8328C26.5469 42.8328 27.3133 42.5414 27.8961 41.9586C28.5156 41.3391 28.7961 40.5133 28.757 39.7L44.7031 35.3508C45.7172 35.0734 46.782 35.4406 47.2914 36.2437C47.5305 36.6187 47.6562 37.0539 47.6562 37.5V37.7234Z" fill="#0B4E3D"/>
<path d="M32.1576 1.85703C31.6514 1.70156 31.1389 1.56094 30.6193 1.4375L30.2568 2.95703C30.7436 3.07266 31.2232 3.20391 31.6967 3.35078L32.1576 1.85703Z" fill="#0B4E3D"/>
<path d="M47.6561 25.0039C47.6561 25.3555 47.6482 25.7063 47.6318 26.0539L49.1928 26.1258C49.21 25.7539 49.2186 25.3797 49.2186 25.0039C49.2186 24.8461 49.217 24.6883 49.2139 24.5312L47.6514 24.5617C47.6545 24.7094 47.6561 24.857 47.6561 25.0039Z" fill="#0B4E3D"/>
<path d="M29.0571 1.11953C28.5422 1.03281 28.011 0.960938 27.4766 0.90625L27.318 2.46094C27.8156 2.51094 28.3086 2.57734 28.7961 2.66094L29.0571 1.11953Z" fill="#0B4E3D"/>
<path d="M47.1297 20.1156L48.6555 19.7797C48.5414 19.2609 48.4094 18.7414 48.2625 18.2344L46.7617 18.6695C46.8992 19.1461 47.0219 19.6281 47.1297 20.1156Z" fill="#0B4E3D"/>
<path d="M35.1398 3.00312C34.6555 2.77969 34.1602 2.57109 33.668 2.38281L33.1094 3.84141C33.5758 4.02031 34.0344 4.21406 34.4852 4.42188L35.1398 3.00312Z" fill="#0B4E3D"/>
<path d="M47.575 23.0672L49.1321 22.9344C49.0867 22.4016 49.0242 21.8742 48.9453 21.3516L47.4 21.5852C47.475 22.0742 47.5328 22.5687 47.575 23.0672Z" fill="#0B4E3D"/>
<path d="M43.5469 11.9844L44.825 11.0859C44.5195 10.6508 44.1992 10.2258 43.8664 9.8125L42.6484 10.7922C42.9609 11.1797 43.2609 11.5766 43.5469 11.9844Z" fill="#0B4E3D"/>
<path d="M46.2983 17.2547L47.7671 16.7203C47.5851 16.2203 47.3851 15.7234 47.1733 15.2422L45.7437 15.8727C45.9429 16.3258 46.128 16.7867 46.2983 17.2547Z" fill="#0B4E3D"/>
<path d="M42.826 8.60625C42.4705 8.21953 42.0939 7.83672 41.708 7.46875L40.6299 8.59922C40.9893 8.94219 41.3385 9.29688 41.6752 9.66328L42.826 8.60625Z" fill="#0B4E3D"/>
<path d="M37.942 4.52813C37.4967 4.24609 37.0334 3.97344 36.5654 3.71875L35.8193 5.09219C36.2568 5.33047 36.6857 5.58203 37.1053 5.84844L37.942 4.52813Z" fill="#0B4E3D"/>
<path d="M46.5835 31.9117L48.0718 32.3875C48.2343 31.8797 48.3804 31.3625 48.5069 30.8516L46.9905 30.4766C46.8702 30.9617 46.7343 31.4398 46.5835 31.9117Z" fill="#0B4E3D"/>
<path d="M49.0687 27.7117L47.5156 27.5391C47.4601 28.0359 47.3882 28.5281 47.3015 29.0148L48.8398 29.2914C48.9328 28.7711 49.0093 28.2398 49.0687 27.7117Z" fill="#0B4E3D"/>
<path d="M40.5189 6.40391C40.1111 6.06406 39.6877 5.73281 39.2619 5.42188L38.3408 6.68359C38.7432 6.97734 39.1354 7.28438 39.5166 7.60313L40.5189 6.40391Z" fill="#0B4E3D"/>
<path d="M45.0971 14.532L46.4822 13.8086C46.2377 13.3406 45.9744 12.8742 45.6986 12.4219L44.3643 13.2336C44.6229 13.657 44.8674 14.0906 45.0971 14.532Z" fill="#0B4E3D"/>
<path d="M3.28613 18.5094L1.78848 18.0625C1.63691 18.5727 1.5002 19.0914 1.38379 19.6063L2.90723 19.9523C3.01816 19.4648 3.14473 18.9844 3.28613 18.5094Z" fill="#0B4E3D"/>
<path d="M4.32637 15.7187L2.90215 15.0781C2.68574 15.5578 2.48184 16.0555 2.2959 16.5555L3.75996 17.1C3.9334 16.632 4.12246 16.1711 4.32637 15.7187Z" fill="#0B4E3D"/>
<path d="M5.72891 13.082L4.40156 12.2578C4.12266 12.7078 3.85469 13.1734 3.60547 13.6414L4.98438 14.3758C5.21875 13.9359 5.46641 13.5047 5.72891 13.082Z" fill="#0B4E3D"/>
<path d="M7.46406 10.6531L6.25469 9.66406C5.91797 10.075 5.59453 10.4969 5.28516 10.9297L6.55547 11.8391C6.84609 11.4344 7.14922 11.0383 7.46406 10.6531Z" fill="#0B4E3D"/>
<path d="M2.36094 25.8867C2.34922 25.5938 2.34375 25.2984 2.34375 25.0039C2.34375 24.7992 2.34609 24.5969 2.35156 24.3945L0.789844 24.3516C0.783594 24.5672 0.78125 24.7859 0.78125 25.0047C0.78125 25.3195 0.7875 25.6336 0.799219 25.9461L2.36094 25.8867Z" fill="#0B4E3D"/>
<path d="M2.6252 21.4234L1.08145 21.1797C0.998633 21.7031 0.932227 22.2352 0.883789 22.7609L2.43926 22.9047C2.48535 22.4055 2.54785 21.9117 2.6252 21.4234Z" fill="#0B4E3D"/>
<path d="M0.911621 27.5375C0.96709 28.0703 1.03975 28.5961 1.12881 29.1172L2.66943 28.8531C2.58584 28.3656 2.51787 27.8727 2.46631 27.375L0.911621 27.5375Z" fill="#0B4E3D"/>
<path d="M11.8057 6.58047L10.8932 5.3125C10.4619 5.62266 10.04 5.94688 9.62988 6.28359L10.6229 7.49063C11.0064 7.175 11.4018 6.87109 11.8057 6.58047Z" fill="#0B4E3D"/>
<path d="M17.0486 3.77578L16.5002 2.3125C16.0025 2.49922 15.5072 2.70391 15.0283 2.92031L15.6721 4.34375C16.1236 4.13984 16.583 3.95078 17.0486 3.77578Z" fill="#0B4E3D"/>
<path d="M19.9021 2.92109L19.5537 1.39844C19.0381 1.51641 18.5186 1.65391 18.0107 1.80703L18.4623 3.30234C18.9357 3.16016 19.4201 3.03203 19.9021 2.92109Z" fill="#0B4E3D"/>
<path d="M22.8463 2.44688L22.701 0.890625C22.1775 0.939062 21.6447 1.00703 21.1182 1.09297L21.3674 2.63594C21.8557 2.55703 22.3486 2.49219 22.8463 2.44688Z" fill="#0B4E3D"/>
<path d="M14.3352 5.00312L13.5992 3.625C13.1305 3.875 12.6664 4.14297 12.2188 4.42266L13.0461 5.74844C13.4656 5.48594 13.8961 5.2375 14.3352 5.00312Z" fill="#0B4E3D"/>
<path d="M24.9328 2.34387C25.2296 2.3423 25.5328 2.34855 25.8304 2.35871L25.8843 0.797773C25.5914 0.786836 25.296 0.781367 25.0023 0.781367C24.7632 0.780586 24.5265 0.783711 24.2898 0.790742L24.3375 2.35324C24.5343 2.34699 24.732 2.34387 24.9328 2.34387Z" fill="#0B4E3D"/>
<path d="M9.50068 8.47734L8.4335 7.33594C8.05146 7.69297 7.67256 8.07266 7.30615 8.46484L8.44834 9.53125C8.78975 9.16406 9.14443 8.80938 9.50068 8.47734Z" fill="#0B4E3D"/>
</g>
<defs>
<clipPath id="clip0_28025_1750">
<rect width="50" height="50" fill="white"/>
</clipPath>
</defs>
</svg>
