<svg width="50" height="50" viewBox="0 0 50 50" fill="none" xmlns="http://www.w3.org/2000/svg">
<path fill-rule="evenodd" clip-rule="evenodd" d="M11.247 29.3118C11.5036 29.5543 11.5155 29.9583 11.2737 30.217L10.6989 30.8258C10.5732 30.9605 10.4038 31.0252 10.234 31.0252C10.077 31.0252 9.91979 30.9713 9.79649 30.8528C9.53969 30.6103 9.52799 30.2063 9.76959 29.953L10.3446 29.3388C10.5864 29.0855 10.9905 29.0693 11.247 29.3118ZM8.44699 33.4765C8.12389 33.3364 7.97659 32.9593 8.11779 32.636L8.41539 31.9572C8.55659 31.6339 8.93309 31.4884 9.25599 31.6285C9.57909 31.7686 9.72639 32.1457 9.58509 32.469L9.28749 33.1478C9.18259 33.3903 8.94819 33.5303 8.70239 33.5303C8.61709 33.5304 8.53019 33.5142 8.44699 33.4765ZM8.28199 36.1974C7.92929 36.1974 7.64349 35.9119 7.64349 35.5563V34.8505C7.64349 34.5003 7.92929 34.2147 8.28199 34.2147C8.63449 34.2147 8.92029 34.5002 8.92029 34.8505V35.5563C8.92039 35.9118 8.63459 36.1974 8.28199 36.1974ZM9.25609 38.7781C9.17299 38.8158 9.08609 38.832 9.00079 38.832C8.75479 38.832 8.52029 38.6919 8.41549 38.4495L8.11789 37.7706C7.97669 37.4473 8.12399 37.0702 8.44709 36.9301C8.76999 36.79 9.14649 36.9355 9.28769 37.2588L9.58529 37.9376C9.72639 38.2609 9.57909 38.638 9.25609 38.7781ZM11.2737 40.1951C11.5155 40.4483 11.5035 40.8524 11.247 41.0949C11.1237 41.2134 10.9663 41.2673 10.8093 41.2673C10.6397 41.2673 10.4702 41.2026 10.3446 41.068L9.76959 40.4592C9.52799 40.2006 9.53979 39.7965 9.79649 39.5541C10.0531 39.317 10.4572 39.3278 10.699 39.581L11.2737 40.1951ZM14.1293 43.0291C14.0089 43.2284 13.7993 43.3362 13.5844 43.3362C13.4707 43.3362 13.3556 43.3039 13.2517 43.2392L12.4385 42.7435C12.138 42.5603 12.0435 42.167 12.2276 41.8653C12.412 41.5636 12.8051 41.472 13.1057 41.6552L13.9187 42.1509C14.2192 42.3341 14.3137 42.7274 14.1293 43.0291ZM17.7405 44.4623C17.648 44.7263 17.4017 44.8879 17.1388 44.8879C17.0681 44.8879 16.9964 44.8771 16.9258 44.8502L15.9301 44.5C15.5976 44.3815 15.4235 44.0205 15.5412 43.6864C15.6587 43.3524 16.0236 43.18 16.3559 43.2985L17.3516 43.6487C17.6842 43.7672 17.8582 44.1336 17.7405 44.4623ZM21.8582 45.292C21.8069 45.6045 21.5362 45.8254 21.2291 45.8254C21.1946 45.8254 21.1598 45.8254 21.1249 45.82L20.0141 45.6368C19.6662 45.5775 19.4305 45.2489 19.4875 44.9041C19.5448 44.5539 19.8731 44.3222 20.221 44.3761L21.3316 44.5593C21.6796 44.6185 21.9153 44.9472 21.8582 45.292ZM26.2131 45.4321C26.2203 45.7877 25.9404 46.0786 25.5881 46.084C25.3875 46.0894 25.1937 46.0894 25.0001 46.0894C24.8063 46.0894 24.6124 46.0894 24.4119 46.084C24.0594 46.0786 23.7794 45.7877 23.7868 45.4321C23.7942 45.0819 24.0863 44.8017 24.4382 44.8071C24.8214 44.8179 25.1786 44.8179 25.5618 44.8071C25.9142 44.8017 26.2058 45.0819 26.2131 45.4321ZM30.512 44.9041C30.5693 45.2489 30.3336 45.5776 29.9857 45.6368L28.8751 45.82C28.8399 45.8254 28.8052 45.8254 28.7709 45.8254C28.4636 45.8254 28.193 45.6045 28.1416 45.292C28.0844 44.9472 28.3201 44.6185 28.6682 44.5592L29.7788 44.376C30.1268 44.3222 30.455 44.5539 30.512 44.9041ZM34.4585 43.6864C34.5762 44.0204 34.4021 44.3814 34.0696 44.5L33.0739 44.8502C33.0035 44.8771 32.9317 44.8879 32.8609 44.8879C32.598 44.8879 32.3518 44.7263 32.2592 44.4623C32.1415 44.1336 32.3156 43.7673 32.6482 43.6487L33.6439 43.2985C33.9761 43.18 34.3411 43.3524 34.4585 43.6864ZM37.7722 41.8653C37.9563 42.167 37.8619 42.5603 37.5613 42.7435L36.7483 43.2392C36.6441 43.3039 36.529 43.3362 36.4154 43.3362C36.2005 43.3362 35.9909 43.2284 35.8705 43.0291C35.6863 42.7274 35.7806 42.3341 36.0812 42.1509L36.8944 41.6552C37.1949 41.472 37.5879 41.5636 37.7722 41.8653ZM40.2033 39.554C40.4598 39.7965 40.4719 40.2005 40.2302 40.4591L39.6552 41.0679C39.5295 41.2026 39.3602 41.2672 39.1905 41.2672C39.0335 41.2672 38.8761 41.2133 38.7527 41.0948C38.4962 40.8524 38.4842 40.4483 38.726 40.195L39.301 39.5808C39.5429 39.3277 39.9467 39.3169 40.2033 39.554ZM41.8819 37.7706L41.5843 38.4495C41.4793 38.692 41.245 38.832 40.999 38.832C40.9135 38.832 40.8269 38.8158 40.7435 38.7781C40.4207 38.638 40.2733 38.2609 40.4145 37.9376L40.7121 37.2588C40.8533 36.9355 41.2298 36.79 41.5527 36.9301C41.8758 37.0702 42.0232 37.4473 41.8819 37.7706ZM42.3563 34.8504V35.5562C42.3563 35.9118 42.0705 36.1973 41.718 36.1973C41.3653 36.1973 41.0794 35.9118 41.0794 35.5562V34.8504C41.0794 34.5002 41.3652 34.2146 41.718 34.2146C42.0705 34.2147 42.3563 34.5002 42.3563 34.8504ZM40.4146 32.469C40.2734 32.1457 40.4207 31.7686 40.7436 31.6285C41.0666 31.4884 41.4432 31.6339 41.5844 31.9572L41.882 32.636C42.0232 32.9593 41.8758 33.3364 41.5528 33.4765C41.4697 33.5142 41.3828 33.5304 41.2973 33.5304C41.0513 33.5304 40.817 33.3903 40.7122 33.1479L40.4146 32.469ZM40.2302 29.9529C40.4718 30.2061 40.4598 30.6102 40.2033 30.8527C40.0802 30.9712 39.9227 31.0251 39.7658 31.0251C39.596 31.0251 39.4265 30.9604 39.3011 30.8257L38.7261 30.2169C38.4843 29.9583 38.4963 29.5542 38.7528 29.3117C39.0094 29.0693 39.4135 29.0854 39.6553 29.3386L40.2302 29.9529ZM41.6593 17.2269C41.7511 17.0653 41.702 16.8605 41.5452 16.7582L41.4705 16.7097C41.3093 16.602 41.0887 16.645 40.9787 16.8013C40.1884 17.9489 39.3064 19.048 38.3568 20.0663C37.4221 21.0684 36.3067 22.2645 34.8246 22.8625C34.5298 23.0134 34.2058 23.1157 33.8636 23.1535C33.7655 23.1751 33.6664 23.1912 33.5649 23.202C33.2413 23.2505 32.9436 23.272 32.6688 23.272C30.9181 23.272 30.0681 22.4153 28.9495 21.2947L26.3 18.6439C26.2314 18.5739 26.1417 18.5362 26.0474 18.5362C26.047 18.5362 26.0466 18.5362 26.0462 18.5362C25.9515 18.5362 25.8616 18.5739 25.7932 18.6439L25.744 18.6978C25.6237 18.8163 25.6043 18.9887 25.695 19.1342C25.9209 19.5005 26.1425 19.8454 26.3567 20.1794C27.8139 22.4477 28.965 24.2418 28.9498 27.5284C28.9382 30.0715 28.105 33.5304 27.3699 36.5853C27.2032 37.275 27.0458 37.9323 26.9048 38.5465C26.8833 38.6381 26.9417 38.7351 27.0347 38.7566L27.1673 38.7943C27.2513 38.8159 27.3268 38.7835 27.3692 38.7081L31.1032 32.0218C31.2188 31.8171 31.4346 31.6985 31.6605 31.6985C31.7295 31.6985 31.7992 31.7093 31.8674 31.7308C32.1593 31.8332 32.338 32.1241 32.2917 32.4312L31.3057 38.9289C31.2901 39.0313 31.3333 39.1013 31.3602 39.1336C31.3874 39.1713 31.4484 39.2252 31.5523 39.236L31.703 39.2468C31.8257 39.2522 31.9234 39.1929 31.9701 39.0798C33.5782 35.1413 34.9475 31.0412 36.1564 26.537C36.3307 25.8905 36.5786 25.3517 36.9604 24.8021C38.611 22.41 40.1919 19.8616 41.6593 17.2269ZM24.3048 19.1342C24.3955 18.9887 24.3762 18.8163 24.2558 18.6978L24.2068 18.6439C24.1382 18.5739 24.0484 18.5362 23.9536 18.5362C23.9532 18.5362 23.9527 18.5362 23.9523 18.5362C23.858 18.5362 23.7684 18.5739 23.6998 18.6439L21.0503 21.2947C19.756 22.5932 18.8209 23.5306 16.4347 23.202C16.3335 23.1912 16.2343 23.1751 16.1361 23.1535C15.7939 23.1158 15.4702 23.0134 15.1753 22.8625C13.6932 22.2645 12.5778 21.0684 11.6432 20.0663C10.6936 19.048 9.81149 17.9489 9.02119 16.8013C8.95219 16.7043 8.83999 16.6504 8.72589 16.6504C8.65789 16.6504 8.58949 16.6666 8.52909 16.7097L8.45479 16.7582C8.29779 16.8606 8.24879 17.0653 8.34049 17.2269C9.80759 19.8615 11.3886 22.41 13.0397 24.8021C13.4215 25.3517 13.6694 25.8904 13.8437 26.537C15.0524 31.0412 16.4216 35.1413 18.03 39.0798C18.0765 39.1929 18.174 39.2522 18.2973 39.2468L18.4476 39.236C18.5518 39.2252 18.6128 39.1713 18.6398 39.1336C18.6669 39.1013 18.7101 39.0312 18.6945 38.9289L17.7085 32.4312C17.6622 32.1241 17.8407 31.8332 18.1326 31.7308C18.4247 31.6338 18.7463 31.7524 18.897 32.0217L22.631 38.708C22.6735 38.7834 22.7489 38.8158 22.8328 38.7942L22.9654 38.7565C23.0584 38.7349 23.1167 38.638 23.095 38.5464C22.9544 37.9322 22.7968 37.2749 22.6301 36.5852C21.895 33.5303 21.0618 30.0714 21.0502 27.5283C21.0351 24.2418 22.1861 22.4476 23.6433 20.1793C23.8574 19.8454 24.079 19.5006 24.3048 19.1342ZM9.52079 15.3681C10.6731 15.4759 11.6523 15.4274 12.5148 15.2334C14.9661 14.6731 15.5448 13.3369 16.2774 11.6451C16.3909 11.3865 16.5083 11.1117 16.639 10.8315L18.1857 7.48034C18.3465 7.79824 18.5098 8.12684 18.6736 8.46094C17.7882 11.8121 17.1823 14.5707 16.951 17.4801C16.7933 17.4478 16.6315 17.437 16.4663 17.437C14.903 17.437 13.6289 18.6924 13.5992 20.2494C13.2406 19.9046 12.9022 19.5436 12.577 19.1934C11.6699 18.2182 10.8272 17.173 10.0723 16.0792C9.87239 15.7883 9.59219 15.5835 9.28139 15.4758C9.29079 15.4596 9.30029 15.4489 9.30849 15.4435C9.34109 15.4112 9.41219 15.3574 9.52079 15.3681ZM12.7697 10.4814C11.8921 10.4814 11.178 11.198 11.178 12.0762C11.178 12.949 11.8921 13.6656 12.7697 13.6656C13.0989 13.6656 13.4049 13.5632 13.6587 13.3962C13.6591 13.3908 13.6595 13.3908 13.6599 13.3908C13.6694 13.3854 13.6782 13.38 13.6879 13.3746C13.7361 13.3369 13.7824 13.2992 13.8272 13.2614C14.1542 12.9705 14.3616 12.5448 14.3616 12.0761C14.3616 11.198 13.6475 10.4814 12.7697 10.4814ZM18.1922 18.0136C18.3595 15.4652 18.8297 13.0514 19.5335 10.239C20.3598 12.0062 21.0858 13.7842 21.3849 15.3197C21.5808 16.3218 21.714 17.4479 21.793 18.7464L20.1459 20.395C19.7648 20.7775 19.4482 21.09 19.1397 21.3433C19.2651 21.02 19.3348 20.6698 19.3348 20.3035C19.3348 19.3713 18.8855 18.5362 18.1922 18.0136ZM15.704 21.6988C15.21 21.4294 14.8743 20.9068 14.8743 20.3034C14.8743 19.4252 15.5886 18.714 16.4662 18.714C17.3438 18.714 18.0579 19.4252 18.0579 20.3034C18.0579 21.1816 17.3438 21.8982 16.4662 21.8982C16.4184 21.8982 16.3715 21.8928 16.3248 21.8874C16.111 21.8443 15.9039 21.7796 15.704 21.6988ZM18.6691 5.37383C18.6868 5.33073 18.7318 5.25533 18.8352 5.22294L18.8899 5.20673C19.0152 5.16363 19.1425 5.21213 19.2064 5.33063C20.1796 7.07624 21.3102 8.48253 22.5662 9.50083C23.999 10.6699 26.0007 10.6699 27.4335 9.50083C28.6897 8.48253 29.8201 7.07634 30.7933 5.33063C30.8463 5.23363 30.9318 5.19053 31.048 5.19594C31.145 5.20133 31.277 5.24984 31.3291 5.37373C31.3632 5.45454 31.3615 5.51923 31.3232 5.59463C31.1163 6.02023 30.8983 6.45664 30.6746 6.90384C29.3518 9.55464 27.8527 12.5556 27.3615 15.0771C27.212 15.8422 27.0971 16.6665 27.0136 17.5824C26.7343 17.3723 26.3994 17.2591 26.0473 17.2591C26.0456 17.2591 26.0438 17.2591 26.042 17.2591C25.6571 17.2645 25.2924 17.3992 24.9998 17.6416C24.7068 17.3991 24.3423 17.2645 23.9574 17.2591C23.6019 17.2591 23.2662 17.3723 22.9857 17.5824C22.9023 16.6665 22.7874 15.8421 22.638 15.0771C22.1468 12.5556 20.6476 9.55464 19.3249 6.90384C19.1011 6.45664 18.8831 6.02023 18.6762 5.59463C18.6285 5.49773 18.6513 5.41153 18.6691 5.37383ZM25 5.91793C24.1222 5.91793 23.4081 6.62913 23.4081 7.50733C23.4081 8.33163 24.0349 9.01054 24.8356 9.09134C24.945 9.09674 25.0547 9.09674 25.1642 9.09134C25.965 9.01054 26.5918 8.33163 26.5918 7.50733C26.5918 6.62913 25.8777 5.91793 25 5.91793ZM30.4661 10.239C31.1701 13.0514 31.6403 15.4651 31.8078 18.0136C31.1141 18.5362 30.665 19.3713 30.665 20.3034C30.665 20.6698 30.7347 21.02 30.8599 21.3432C30.5516 21.09 30.2351 20.7775 29.854 20.3949L28.2067 18.7463C28.2858 17.4478 28.4191 16.3218 28.6148 15.3196C28.9139 13.7841 29.6401 12.0061 30.4661 10.239ZM33.675 21.8874C33.6283 21.8928 33.5814 21.8982 33.5336 21.8982C32.656 21.8982 31.9419 21.1816 31.9419 20.3034C31.9419 19.4252 32.656 18.714 33.5336 18.714C34.4114 18.714 35.1253 19.4252 35.1253 20.3034C35.1253 20.9068 34.7898 21.4294 34.2961 21.6988C34.0959 21.7796 33.889 21.8443 33.675 21.8874ZM33.7232 11.6506C34.1401 12.615 34.5236 13.4986 35.2846 14.1775C35.3953 14.2799 35.514 14.3769 35.6399 14.4577C36.1094 14.7864 36.7032 15.0504 37.485 15.2335C38.3475 15.4275 39.3268 15.476 40.479 15.3682C40.5871 15.3574 40.6585 15.4113 40.6913 15.4436C40.6995 15.449 40.709 15.4598 40.7184 15.4759C40.4075 15.5837 40.1274 15.7884 39.9275 16.0793C39.1726 17.173 38.3299 18.2183 37.4228 19.1935C37.0974 19.5437 36.7592 19.9047 36.4006 20.2495C36.3709 18.6924 35.0966 17.4371 33.5335 17.4371C33.3683 17.4371 33.2065 17.4479 33.0488 17.4802C32.8175 14.5708 32.2116 11.8176 31.3262 8.46104C31.4899 8.12704 31.6534 7.79834 31.814 7.48044L33.3607 10.8316C33.4919 11.1118 33.6096 11.3866 33.7232 11.6506ZM37.2301 10.4814C36.3523 10.4814 35.6382 11.198 35.6382 12.0762C35.6382 12.5611 35.8594 12.9975 36.206 13.2885C36.2132 13.2993 36.2201 13.3047 36.2275 13.3101C36.5015 13.531 36.8503 13.6657 37.2302 13.6657C38.1078 13.6657 38.8219 12.9491 38.8219 12.0763C38.8218 11.198 38.1077 10.4814 37.2301 10.4814ZM42.2521 15.6968L42.1776 15.6429C42.1349 15.616 42.0911 15.589 42.0469 15.5675C42.0301 15.1742 41.865 14.8024 41.5812 14.5277C41.2577 14.2098 40.8134 14.0536 40.3628 14.0967C39.9522 14.1344 39.5702 14.1506 39.2111 14.1452C39.7573 13.6226 40.0984 12.8899 40.0984 12.0763C40.0984 10.4923 38.8116 9.20464 37.2301 9.20464C36.1416 9.20464 35.1928 9.81343 34.7069 10.7078C34.6475 10.5731 34.5859 10.4384 34.52 10.293L32.5372 5.99893C32.6702 5.63253 32.6597 5.23924 32.5042 4.87293C32.2717 4.32874 31.7267 3.95163 31.1155 3.91933C30.5174 3.88703 29.9664 4.18873 29.6779 4.71133C29.1215 5.70803 28.5137 6.58094 27.8616 7.31904C27.7643 5.82664 26.5184 4.64133 25 4.64133C23.4813 4.64133 22.2354 5.82664 22.1381 7.31904C21.4861 6.58094 20.8783 5.70803 20.3219 4.71133C19.959 4.05943 19.21 3.76303 18.5003 3.98933L18.4456 4.00554C18.0165 4.14564 17.6699 4.45814 17.4941 4.87293C17.3413 5.23393 17.3318 5.63263 17.4628 5.99893L15.4798 10.293C15.414 10.4385 15.3523 10.5732 15.2927 10.7078C14.8067 9.81343 13.8582 9.20464 12.7697 9.20464C11.1881 9.20464 9.90129 10.4923 9.90129 12.0763C9.90129 12.8899 10.2425 13.6226 10.7886 14.1452C10.4295 14.1506 10.0475 14.1344 9.63689 14.0967C9.18609 14.0536 8.74199 14.2098 8.41849 14.5277C8.13459 14.8025 7.96979 15.1742 7.95279 15.5675C7.90839 15.5891 7.86459 15.616 7.82189 15.6429L7.74759 15.6968C7.04209 16.1655 6.81269 17.1084 7.22519 17.8519C8.71209 20.5189 10.3147 23.0996 11.9887 25.5241C12.2878 25.9605 12.4738 26.3592 12.6105 26.8711C13.8333 31.4238 15.2193 35.5724 16.8477 39.5647C17.0868 40.1466 17.6521 40.5237 18.2771 40.5237C18.3133 40.5237 18.3499 40.5237 18.3866 40.5183L18.5369 40.5075C18.9675 40.4806 19.3682 40.2705 19.6366 39.9364C19.9047 39.597 20.0213 39.1606 19.9565 38.7349L19.4988 35.7177L21.5163 39.3275C21.8446 39.9148 22.5025 40.2003 23.1536 40.0279L23.2862 39.9956C24.054 39.7963 24.5168 39.0312 24.3396 38.2607C24.1971 37.6357 24.0389 36.9784 23.8713 36.2834C23.1524 33.2986 22.3377 29.915 22.3267 27.5229C22.3135 24.6135 23.3218 23.0402 24.7178 20.869C24.8104 20.7235 24.9047 20.5781 25.0001 20.4272C25.0952 20.5781 25.1895 20.7235 25.2823 20.869C26.6778 23.0403 27.6866 24.6135 27.6731 27.5229C27.662 29.9151 26.8475 33.2986 26.1285 36.2834C25.961 36.9784 25.8027 37.6357 25.6602 38.2607C25.4832 39.0312 25.9457 39.7962 26.7135 39.9956L26.8461 40.0279C27.4975 40.2003 28.1554 39.9147 28.4835 39.3275L30.501 35.7177L30.0433 38.7349C29.9785 39.1605 30.0951 39.5969 30.3632 39.9364C30.6315 40.2704 31.0322 40.4805 31.4626 40.5075L31.6133 40.5183C31.6501 40.5237 31.6865 40.5237 31.7227 40.5237C32.3474 40.5237 32.9129 40.1466 33.1519 39.5647C34.7803 35.5724 36.1664 31.4237 37.3891 26.8711C37.5257 26.3593 37.7117 25.9606 38.0108 25.5241C39.6846 23.0996 41.2872 20.5188 42.7744 17.8519C43.187 17.1084 42.9576 16.1655 42.2521 15.6968Z" fill="#0B4E3D"/>
</svg>
