<svg width="20" height="20" viewBox="0 0 20 20" fill="none" xmlns="http://www.w3.org/2000/svg">
<path d="M5.83398 15.8359H14.1673" stroke="#FFC107" stroke-width="1.5" stroke-linecap="round" stroke-linejoin="round"/>
<path d="M15.8333 13.3359C16.4806 13.3554 16.8667 13.4278 17.1339 13.6954C17.5 14.062 17.5 14.6521 17.5 15.8324C17.5 17.0125 17.5 17.6026 17.1339 17.9693C16.7677 18.3359 16.1785 18.3359 15 18.3359H5C3.82149 18.3359 3.23223 18.3359 2.86612 17.9693C2.5 17.6026 2.5 17.0125 2.5 15.8324C2.5 14.6521 2.5 14.062 2.86612 13.6954C3.13333 13.4278 3.5194 13.3554 4.16667 13.3359" stroke="#FFC107" stroke-linecap="round" stroke-linejoin="round"/>
<path d="M11.9299 15.8359C12.5354 15.3124 12.9173 14.5464 12.9173 13.6931C12.9173 12.1151 11.6115 10.8359 10.0007 10.8359C8.38982 10.8359 7.08398 12.1151 7.08398 13.6931C7.08398 14.5464 7.46589 15.3124 8.0714 15.8359" stroke="#FFC107" stroke-linecap="round"/>
<path d="M16.6673 8.33073H14.6716C14.4265 8.33073 14.1847 8.2755 13.9655 8.16942L12.2639 7.3461C12.0447 7.24001 11.8029 7.18479 11.5577 7.18479H10.6889C9.84857 7.18479 9.16732 6.52558 9.16732 5.7124C9.16732 5.67953 9.18982 5.65065 9.22248 5.64161L11.3399 5.05619C11.7197 4.95117 12.1265 4.98775 12.4798 5.1587L14.2989 6.03885M9.16732 6.2474L5.34001 7.4233C4.66151 7.6347 3.92808 7.38403 3.50307 6.79548C3.19577 6.36994 3.32088 5.76057 3.7686 5.50225L10.0316 1.88862C10.4299 1.65879 10.8999 1.60271 11.338 1.73272L16.6673 3.3141" stroke="#FFC107" stroke-linecap="round" stroke-linejoin="round"/>
</svg>
