<svg width="135" height="46" viewBox="0 0 135 46" fill="none" xmlns="http://www.w3.org/2000/svg">
<path d="M50.828 36V35.244L51.584 35.028C52.064 34.884 52.376 34.668 52.52 34.38C52.664 34.092 52.736 33.708 52.736 33.228V15.012C52.736 14.508 52.652 14.124 52.484 13.86C52.34 13.572 52.028 13.356 51.548 13.212L50.828 12.96V12.204H59.576V12.96L58.82 13.212C58.364 13.332 58.064 13.536 57.92 13.824C57.776 14.112 57.704 14.508 57.704 15.012V33.264C57.704 33.744 57.788 34.128 57.956 34.416C58.124 34.68 58.436 34.884 58.892 35.028L59.576 35.244V36H50.828ZM63.932 36V35.244L64.364 35.136C64.82 35.016 65.06 34.788 65.084 34.452C65.108 34.116 64.952 33.732 64.616 33.3L57.74 23.76L66.524 14.832C66.884 14.472 67.076 14.148 67.1 13.86C67.148 13.548 66.932 13.308 66.452 13.14L65.84 12.96V12.204H71.528V12.96L70.592 13.212C70.04 13.38 69.596 13.584 69.26 13.824C68.924 14.04 68.54 14.376 68.108 14.832L61.7 21.348L69.944 33.12C70.328 33.648 70.688 34.068 71.024 34.38C71.384 34.692 71.864 34.932 72.464 35.1L72.968 35.244V36H63.932ZM78.2758 16.2C77.4838 16.2 76.8118 15.948 76.2598 15.444C75.7078 14.94 75.4318 14.304 75.4318 13.536C75.4318 12.744 75.7078 12.108 76.2598 11.628C76.8118 11.124 77.4838 10.872 78.2758 10.872C79.0678 10.872 79.7398 11.124 80.2918 11.628C80.8438 12.108 81.1198 12.744 81.1198 13.536C81.1198 14.304 80.8438 14.94 80.2918 15.444C79.7398 15.948 79.0678 16.2 78.2758 16.2ZM74.1358 36V35.316L74.6758 35.172C75.1558 35.028 75.4798 34.812 75.6478 34.524C75.8158 34.236 75.9118 33.852 75.9358 33.372V26.748C75.9358 26.004 75.9358 25.32 75.9358 24.696C75.9358 24.048 75.9238 23.388 75.8998 22.716C75.8998 22.236 75.8038 21.864 75.6118 21.6C75.4438 21.312 75.1198 21.12 74.6398 21.024L74.1358 20.916V20.268L80.4358 18.18L80.8678 18.576L80.7598 23.688V33.408C80.7598 33.888 80.8438 34.272 81.0118 34.56C81.2038 34.848 81.5278 35.064 81.9838 35.208L82.3798 35.316V36H74.1358ZM83.9787 36V35.316L84.5547 35.172C85.3467 34.932 85.7427 34.344 85.7427 33.408V22.788C85.7187 22.284 85.6347 21.9 85.4907 21.636C85.3467 21.348 85.0347 21.156 84.5547 21.06L83.9787 20.916V20.268L89.8107 18.18L90.2427 18.576L90.4947 20.808C91.3587 20.04 92.3187 19.416 93.3747 18.936C94.4547 18.432 95.5107 18.18 96.5427 18.18C98.1267 18.18 99.3387 18.612 100.179 19.476C101.043 20.34 101.475 21.66 101.475 23.436V33.444C101.475 34.38 101.907 34.968 102.771 35.208L103.167 35.316V36H94.8867V35.316L95.4267 35.172C96.2187 34.908 96.6147 34.32 96.6147 33.408V22.716C96.6147 21.876 96.4347 21.264 96.0747 20.88C95.7147 20.496 95.1147 20.304 94.2747 20.304C93.0987 20.304 91.8747 20.82 90.6027 21.852V33.444C90.6027 34.38 91.0227 34.968 91.8627 35.208L92.2227 35.316V36H83.9787ZM112.211 36.504C110.795 36.504 109.523 36.192 108.395 35.568C107.267 34.92 106.379 33.936 105.731 32.616C105.107 31.272 104.795 29.568 104.795 27.504C104.795 25.44 105.155 23.724 105.875 22.356C106.595 20.964 107.555 19.92 108.755 19.224C109.955 18.528 111.275 18.18 112.715 18.18C113.579 18.18 114.407 18.288 115.199 18.504C115.991 18.696 116.687 18.996 117.287 19.404V14.724C117.287 14.22 117.203 13.86 117.035 13.644C116.891 13.404 116.579 13.224 116.099 13.104L115.379 12.96V12.276L121.643 10.728L122.111 11.052L121.967 16.128V33.444C121.967 33.9 122.051 34.284 122.219 34.596C122.387 34.884 122.687 35.088 123.119 35.208L123.515 35.316V36L117.539 36.396L117.215 34.884C116.567 35.388 115.823 35.784 114.983 36.072C114.143 36.36 113.219 36.504 112.211 36.504ZM114.191 34.848C115.223 34.848 116.195 34.512 117.107 33.84V20.448C116.219 19.896 115.259 19.62 114.227 19.62C113.051 19.62 112.043 20.244 111.203 21.492C110.363 22.716 109.943 24.696 109.943 27.432C109.943 30.168 110.339 32.088 111.131 33.192C111.923 34.296 112.943 34.848 114.191 34.848ZM129.323 16.2C128.531 16.2 127.859 15.948 127.307 15.444C126.755 14.94 126.479 14.304 126.479 13.536C126.479 12.744 126.755 12.108 127.307 11.628C127.859 11.124 128.531 10.872 129.323 10.872C130.115 10.872 130.787 11.124 131.339 11.628C131.891 12.108 132.167 12.744 132.167 13.536C132.167 14.304 131.891 14.94 131.339 15.444C130.787 15.948 130.115 16.2 129.323 16.2ZM125.183 36V35.316L125.723 35.172C126.203 35.028 126.527 34.812 126.695 34.524C126.863 34.236 126.959 33.852 126.983 33.372V26.748C126.983 26.004 126.983 25.32 126.983 24.696C126.983 24.048 126.971 23.388 126.947 22.716C126.947 22.236 126.851 21.864 126.659 21.6C126.491 21.312 126.167 21.12 125.687 21.024L125.183 20.916V20.268L131.483 18.18L131.915 18.576L131.807 23.688V33.408C131.807 33.888 131.891 34.272 132.059 34.56C132.251 34.848 132.575 35.064 133.031 35.208L133.427 35.316V36H125.183Z" fill="#0B4E3D"/>
<circle cx="20" cy="23" r="20" fill="#0B4E3D"/>
<path d="M15.834 28.8359H24.1673" stroke="#FFC107" stroke-width="1.5" stroke-linecap="round" stroke-linejoin="round"/>
<path d="M25.8333 26.3359C26.4806 26.3554 26.8667 26.4278 27.1339 26.6954C27.5 27.062 27.5 27.6521 27.5 28.8324C27.5 30.0125 27.5 30.6026 27.1339 30.9693C26.7677 31.3359 26.1785 31.3359 25 31.3359H15C13.8215 31.3359 13.2322 31.3359 12.8661 30.9693C12.5 30.6026 12.5 30.0125 12.5 28.8324C12.5 27.6521 12.5 27.062 12.8661 26.6954C13.1333 26.4278 13.5194 26.3554 14.1667 26.3359" stroke="#FFC107" stroke-linecap="round" stroke-linejoin="round"/>
<path d="M21.9299 28.8359C22.5354 28.3124 22.9173 27.5464 22.9173 26.6931C22.9173 25.1151 21.6115 23.8359 20.0007 23.8359C18.3898 23.8359 17.084 25.1151 17.084 26.6931C17.084 27.5464 17.4659 28.3124 18.0714 28.8359" stroke="#FFC107" stroke-linecap="round"/>
<path d="M26.6673 21.3307H24.6716C24.4265 21.3307 24.1847 21.2755 23.9655 21.1694L22.2639 20.3461C22.0447 20.24 21.8029 20.1848 21.5577 20.1848H20.6889C19.8486 20.1848 19.1673 19.5256 19.1673 18.7124C19.1673 18.6795 19.1898 18.6506 19.2225 18.6416L21.3399 18.0562C21.7197 17.9512 22.1265 17.9877 22.4798 18.1587L24.2989 19.0388M19.1673 19.2474L15.34 20.4233C14.6615 20.6347 13.9281 20.384 13.5031 19.7955C13.1958 19.3699 13.3209 18.7606 13.7686 18.5023L20.0316 14.8886C20.4299 14.6588 20.8999 14.6027 21.338 14.7327L26.6673 16.3141" stroke="#FFC107" stroke-linecap="round" stroke-linejoin="round"/>
</svg>
