<svg width="177" height="46" viewBox="0 0 177 46" fill="none" xmlns="http://www.w3.org/2000/svg">
<path d="M51.104 40V38.992L52.112 38.704C52.752 38.512 53.168 38.224 53.36 37.84C53.552 37.456 53.648 36.944 53.648 36.304V12.016C53.648 11.344 53.536 10.832 53.312 10.48C53.12 10.096 52.704 9.808 52.064 9.616L51.104 9.28V8.272H62.768V9.28L61.76 9.616C61.152 9.776 60.752 10.048 60.56 10.432C60.368 10.816 60.272 11.344 60.272 12.016V36.352C60.272 36.992 60.384 37.504 60.608 37.888C60.832 38.24 61.248 38.512 61.856 38.704L62.768 38.992V40H51.104ZM68.576 40V38.992L69.152 38.848C69.76 38.688 70.08 38.384 70.112 37.936C70.144 37.488 69.936 36.976 69.488 36.4L60.32 23.68L72.032 11.776C72.512 11.296 72.768 10.864 72.8 10.48C72.864 10.064 72.576 9.744 71.936 9.52L71.12 9.28V8.272H78.704V9.28L77.456 9.616C76.72 9.84 76.128 10.112 75.68 10.432C75.232 10.72 74.72 11.168 74.144 11.776L65.6 20.464L76.592 36.16C77.104 36.864 77.584 37.424 78.032 37.84C78.512 38.256 79.152 38.576 79.952 38.8L80.624 38.992V40H68.576ZM87.701 13.6C86.645 13.6 85.749 13.264 85.013 12.592C84.277 11.92 83.909 11.072 83.909 10.048C83.909 8.992 84.277 8.144 85.013 7.504C85.749 6.832 86.645 6.496 87.701 6.496C88.757 6.496 89.653 6.832 90.389 7.504C91.125 8.144 91.493 8.992 91.493 10.048C91.493 11.072 91.125 11.92 90.389 12.592C89.653 13.264 88.757 13.6 87.701 13.6ZM82.181 40V39.088L82.901 38.896C83.541 38.704 83.973 38.416 84.197 38.032C84.421 37.648 84.549 37.136 84.581 36.496V27.664C84.581 26.672 84.581 25.76 84.581 24.928C84.581 24.064 84.565 23.184 84.533 22.288C84.533 21.648 84.405 21.152 84.149 20.8C83.925 20.416 83.493 20.16 82.853 20.032L82.181 19.888V19.024L90.581 16.24L91.157 16.768L91.013 23.584V36.544C91.013 37.184 91.125 37.696 91.349 38.08C91.605 38.464 92.037 38.752 92.645 38.944L93.173 39.088V40H82.181ZM95.3049 40V39.088L96.0729 38.896C97.1289 38.576 97.6569 37.792 97.6569 36.544V22.384C97.6249 21.712 97.5129 21.2 97.3209 20.848C97.1289 20.464 96.7129 20.208 96.0729 20.08L95.3049 19.888V19.024L103.081 16.24L103.657 16.768L103.993 19.744C105.145 18.72 106.425 17.888 107.833 17.248C109.273 16.576 110.681 16.24 112.057 16.24C114.169 16.24 115.785 16.816 116.905 17.968C118.057 19.12 118.633 20.88 118.633 23.248V36.592C118.633 37.84 119.209 38.624 120.361 38.944L120.889 39.088V40H109.849V39.088L110.569 38.896C111.625 38.544 112.153 37.76 112.153 36.544V22.288C112.153 21.168 111.913 20.352 111.433 19.84C110.953 19.328 110.153 19.072 109.033 19.072C107.465 19.072 105.833 19.76 104.137 21.136V36.592C104.137 37.84 104.697 38.624 105.817 38.944L106.297 39.088V40H95.3049ZM132.947 40.672C131.059 40.672 129.363 40.256 127.859 39.424C126.355 38.56 125.171 37.248 124.307 35.488C123.475 33.696 123.059 31.424 123.059 28.672C123.059 25.92 123.539 23.632 124.499 21.808C125.459 19.952 126.739 18.56 128.339 17.632C129.939 16.704 131.699 16.24 133.619 16.24C134.771 16.24 135.875 16.384 136.931 16.672C137.987 16.928 138.915 17.328 139.715 17.872V11.632C139.715 10.96 139.603 10.48 139.379 10.192C139.187 9.872 138.771 9.632 138.131 9.472L137.171 9.28V8.368L145.523 6.304L146.147 6.736L145.955 13.504V36.592C145.955 37.2 146.067 37.712 146.291 38.128C146.515 38.512 146.915 38.784 147.491 38.944L148.019 39.088V40L140.051 40.528L139.619 38.512C138.755 39.184 137.763 39.712 136.643 40.096C135.523 40.48 134.291 40.672 132.947 40.672ZM135.587 38.464C136.963 38.464 138.259 38.016 139.475 37.12V19.264C138.291 18.528 137.011 18.16 135.635 18.16C134.067 18.16 132.723 18.992 131.603 20.656C130.483 22.288 129.923 24.928 129.923 28.576C129.923 32.224 130.451 34.784 131.507 36.256C132.563 37.728 133.923 38.464 135.587 38.464ZM155.764 13.6C154.708 13.6 153.812 13.264 153.076 12.592C152.34 11.92 151.972 11.072 151.972 10.048C151.972 8.992 152.34 8.144 153.076 7.504C153.812 6.832 154.708 6.496 155.764 6.496C156.82 6.496 157.716 6.832 158.452 7.504C159.188 8.144 159.556 8.992 159.556 10.048C159.556 11.072 159.188 11.92 158.452 12.592C157.716 13.264 156.82 13.6 155.764 13.6ZM150.244 40V39.088L150.964 38.896C151.604 38.704 152.036 38.416 152.26 38.032C152.484 37.648 152.612 37.136 152.644 36.496V27.664C152.644 26.672 152.644 25.76 152.644 24.928C152.644 24.064 152.628 23.184 152.596 22.288C152.596 21.648 152.468 21.152 152.212 20.8C151.988 20.416 151.556 20.16 150.916 20.032L150.244 19.888V19.024L158.644 16.24L159.22 16.768L159.076 23.584V36.544C159.076 37.184 159.188 37.696 159.412 38.08C159.668 38.464 160.1 38.752 160.708 38.944L161.236 39.088V40H150.244ZM169.559 40.672C168.439 40.672 167.479 40.288 166.679 39.52C165.911 38.752 165.527 37.824 165.527 36.736C165.527 35.616 165.911 34.656 166.679 33.856C167.479 33.056 168.439 32.656 169.559 32.656C170.679 32.656 171.623 33.056 172.391 33.856C173.191 34.656 173.591 35.616 173.591 36.736C173.591 37.824 173.191 38.752 172.391 39.52C171.623 40.288 170.679 40.672 169.559 40.672Z" fill="white"/>
<circle cx="20" cy="23" r="20" fill="#FFC107"/>
<path d="M15.834 28.8359H24.1673" stroke="#0B4E3D" stroke-width="1.5" stroke-linecap="round" stroke-linejoin="round"/>
<path d="M25.8333 26.3359C26.4806 26.3554 26.8667 26.4278 27.1339 26.6954C27.5 27.062 27.5 27.6521 27.5 28.8324C27.5 30.0125 27.5 30.6026 27.1339 30.9693C26.7677 31.3359 26.1785 31.3359 25 31.3359H15C13.8215 31.3359 13.2322 31.3359 12.8661 30.9693C12.5 30.6026 12.5 30.0125 12.5 28.8324C12.5 27.6521 12.5 27.062 12.8661 26.6954C13.1333 26.4278 13.5194 26.3554 14.1667 26.3359" stroke="#0B4E3D" stroke-linecap="round" stroke-linejoin="round"/>
<path d="M21.9299 28.8359C22.5354 28.3124 22.9173 27.5464 22.9173 26.6931C22.9173 25.1151 21.6115 23.8359 20.0007 23.8359C18.3898 23.8359 17.084 25.1151 17.084 26.6931C17.084 27.5464 17.4659 28.3124 18.0714 28.8359" stroke="#0B4E3D" stroke-linecap="round"/>
<path d="M26.6673 21.3307H24.6716C24.4265 21.3307 24.1847 21.2755 23.9655 21.1694L22.2639 20.3461C22.0447 20.24 21.8029 20.1848 21.5577 20.1848H20.6889C19.8486 20.1848 19.1673 19.5256 19.1673 18.7124C19.1673 18.6795 19.1898 18.6506 19.2225 18.6416L21.3399 18.0562C21.7197 17.9512 22.1265 17.9877 22.4798 18.1587L24.2989 19.0388M19.1673 19.2474L15.34 20.4233C14.6615 20.6347 13.9281 20.384 13.5031 19.7955C13.1958 19.3699 13.3209 18.7606 13.7686 18.5023L20.0316 14.8886C20.4299 14.6588 20.8999 14.6027 21.338 14.7327L26.6673 16.3141" stroke="#0B4E3D" stroke-linecap="round" stroke-linejoin="round"/>
</svg>
